{
.appVersion = "3129";
.formatVersion = 3;
axes = (
{
name = wght;
tag = wght;
}
);
customParameters = (
{
name = "Write lastChange";
value = 0;
},
{
name = "Use Typo Metrics";
value = 1;
},
{
name = fsType;
value = (
);
}
);
date = "2022-03-20 03:42:48 +0000";
familyName = "Edu SA Beginner";
featurePrefixes = (
{
automatic = 1;
code = "languagesystem DFLT dflt;
";
name = Languagesystems;
}
);
fontMaster = (
{
axesValues = (
400
);
customParameters = (
{
name = hheaAscender;
value = 950;
},
{
name = hheaDescender;
value = -300;
},
{
name = hheaLineGap;
value = 0;
},
{
name = typoAscender;
value = 950;
},
{
name = typoDescender;
value = -300;
},
{
name = typoLineGap;
value = 0;
},
{
name = winAscent;
value = 950;
},
{
name = winDescent;
value = 310;
}
);
id = m01;
metricValues = (
{
pos = 650;
},
{
over = 4;
pos = 650;
},
{
over = 4;
pos = 568;
},
{
over = 4;
pos = 350;
},
{
over = -4;
},
{
over = -4;
pos = -300;
},
{
}
);
name = Regular;
stemValues = (
50,
46
);
userData = {
com.schriftgestaltung.Glyphs.layerLib.public.default = {
GSOffsetHorizontal = 15;
GSOffsetKeepCompatible = 1;
GSOffsetVertical = 10;
};
com.typemytype.robofont.segmentType = curve;
com.typemytype.robofont.smartSets.uniqueKey = "4714750416";
com.typesupply.metricsMachine4.groupColors = {
public.kern1.H_right = (
1,
0,
0,
0.25
);
public.kern1.O_right = (
1,
0,
0.76,
0.25
);
public.kern1.V_right = (
0,
1,
1,
0.25
);
public.kern1.colon_right = (
0.5,
0,
1,
0.25
);
public.kern1.hyphen_right = (
0,
0,
1,
0.25
);
public.kern1.n_right = (
1,
1,
0,
0.25
);
public.kern1.o_right = (
0,
1,
0,
0.25
);
public.kern1.period_right = (
1,
0,
1,
0.25
);
public.kern1.quote_right = (
1,
0,
0.5,
0.25
);
public.kern1.v_right = (
0,
0.5,
1,
0.25
);
public.kern2.H_left = (
0,
0.9,
0.92,
0.25
);
public.kern2.O_left = (
0,
0,
0.98,
0.25
);
public.kern2.V_left = (
0,
1,
0,
0.25
);
public.kern2.colon_left = (
1,
0,
1,
0.25
);
public.kern2.h_left = (
0.48,
0,
1,
0.25
);
public.kern2.hyphen_left = (
0.5,
0,
1,
0.25
);

glyphs = (
{
color = 6;
glyphname = A;
layers = (
{
layerId = m01;
shapes = (
{
closed = 1;
nodes = (
(9,-4,o),
(22,8,o),
(29,24,cs),
(278,598,l),
(262,600,l),
(345,28,ls),
(347,12,o),
(351,-2,o),
(372,0,cs),
(391,2,o),
(396,16,o),
(393,34,cs),
(302,625,ls),
(300,640,o),
(295,650,o),
(276,650,cs),
(259,650,o),
(253,641,o),
(246,626,cs),
(-17,40,ls),
(-27,18,o),
(-22,4,o),
(-7,0,cs)
);
},
{
closed = 1;
nodes = (
(329,327,l),
(321,372,l),
(161,372,l),
(142,327,l)
);
}
);
vertWidth = 0;
width = 441;
},
{
layerId = m002;
shapes = (
{
closed = 1;
nodes = (
(37,-7,o),
(68,3,o),
(81,33,cs),
(286,521,l),
(270,523,l),
(330,49,ls),
(335,12,o),
(355,-5,o),
(387,0,cs),
(415,4,o),
(428,26,o),
(423,61,cs),
(336,619,ls),
(333,639,o),
(316,650,o),
(288,650,cs),
(257,650,o),
(248,639,o),
(238,616,cs),
(-10,66,ls),
(-23,37,o),
(-9,11,o),
(14,2,cs)
);
},
{
closed = 1;
nodes = (
(342,247,l),
(331,327,l),
(163,327,l),
(129,247,l)
);
}
);
vertWidth = 0;
width = 470;
}
);
unicode = 65;
},
{
color = 6;
glyphname = B;
kernLeft = H_left;
layers = (
{
layerId = m01;
shapes = (
{
closed = 1;
nodes = (
(285,0,o),
(430,69,o),
(442,182,cs),
(455,308,o),
(326,373,o),
(105,356,c),
(101,312,l),
(288,330,o),
(401,277,o),
(392,189,cs),
(383,105,o),
(274,48,o),
(85,46,c),
(143,605,l),
(314,616,o),
(400,556,o),
(392,488,cs),
(384,423,o),
(346,365,o),
(110,357,c),
(106,321,l),
(397,333,o),
(431,402,o),
(442,484,cs),
(456,594,o),
(340,663,o),
(123,650,cs),
(106,649,o),
(97,641,o),
(95,623,cs),
(33,31,ls),
(31,14,o),
(42,0,o),
(57,0,cs)
);
}
);
vertWidth = 0;
width = 503;
},
{
layerId = m002;
shapes = (
{
closed = 1;
nodes = (
(321,0,o),
(473,69,o),
(486,182,cs),
(499,308,o),
(364,377,o),
(117,360,c),
(109,281,l),
(290,294,o),
(391,256,o),
(383,195,cs),
(375,139,o),
(285,99,o),
(137,97,c),
(186,559,l),
(319,568,o),
(392,519,o),
(386,465,cs),
(380,411,o),
(345,368,o),
(124,361,c),
(117,304,l),
(437,316,o),
(476,385,o),
(485,469,cs),
(499,599,o),
(380,665,o),
(150,650,cs),
(117,648,o),
(99,643,o),
(95,602,cs),
(36,53,ls),
(33,23,o),
(53,0,o),
(83,0,cs)
);
}
);
vertWidth = 0;
width = 547;
}
);
unicode = 66;
},
{
color = 6;
glyphname = C;
kernLeft = O_left;
layers = (
{
layerId = m01;
shapes = (
{
closed = 1;
nodes = (
(297,-5,o),
(375,63,o),
(406,125,cs),
(419,151,o),
(421,165,o),
(404,174,cs),
(387,183,o),
(375,172,o),
(364,149,cs),
(338,99,o),
(284,41,o),
(203,41,cs),
(105,41,o),
(66,153,o),
(99,334,cs),
(130,502,o),
(207,609,o),
(303,609,cs),
(351,609,o),
(390,572,o),
(411,557,cs),
(421,549,o),
(439,542,o),
(452,557,cs),
(465,572,o),
(457,587,o),
(448,595,cs),
(420,620,o),
(378,655,o),
(300,655,cs),
(182,655,o),
(86,535,o),
(49,340,cs),
(8,127,o),
(68,-5,o),
(207,-5,cs)
);
}
);
vertWidth = 0;
width = 480;
},
{
layerId = m002;
shapes = (
{
closed = 1;
nodes = (
(340,-5,o),
(423,55,o),
(457,116,cs),
(480,158,o),
(465,191,o),
(440,204,cs),
(415,217,o),
(392,207,o),
(380,181,cs),
(357,132,o),
(309,83,o),
(232,83,cs),
(157,83,o),
(127,163,o),
(148,331,cs),
(166,477,o),
(227,565,o),
(335,565,cs),
(374,565,o),
(415,536,o),
(436,521,cs),
(458,506,o),
(483,509,o),
(499,537,cs),
(516,567,o),
(503,597,o),
(485,610,cs),
(460,629,o),
(389,655,o),
(328,655,cs),
(172,655,o),
(77,546,o),
(47,343,cs),
(16,132,o),
(78,-5,o),
(231,-5,cs)
);
}
);
vertWidth = 0;
width = 532;
}
);
unicode = 67;
},
{
color = 6;
glyphname = D;
kernLeft = H_left;
kernRight = O_right;
layers = (
{
layerId = m01;
shapes = (
{
closed = 1;
nodes = (
(122,0,ls),
(321,0,o),
(429,128,o),
(453,340,cs),
(474,526,o),
(369,650,o),
(181,650,cs),
(125,650,ls),
(103,650,o),
(98,639,o),
(96,623,cs),
(33,27,ls),
(31,12,o),
(40,0,o),
(58,0,cs)
);
},
{
closed = 1;
nodes = (
(144,604,l),
(188,604,ls),
(337,604,o),
(421,496,o),
(404,344,cs),
(382,152,o),
(293,46,o),
(119,46,cs),
(85,46,l)
);
}
);
vertWidth = 0;
width = 497;
},
{
layerId = m002;
shapes = (
{
closed = 1;
nodes = (
(159,0,ls),
(352,0,o),
(478,129,o),
(500,336,cs),
(519,523,o),
(405,650,o),
(213,650,cs),
(142,650,ls),
(112,650,o),
(97,636,o),
(94,609,cs),
(35,49,ls),
(32,22,o),
(53,0,o),
(83,0,cs)
);
},
{
closed = 1;
nodes = (
(190,562,l),
(202,562,ls),
(336,562,o),
(417,489,o),
(403,339,cs),
(388,173,o),
(296,89,o),
(153,89,cs),
(140,89,l)
);
}
);
vertWidth = 0;
width = 545;
}
);
unicode = 68;
},
{
color = 6;
glyphname = E;
kernLeft = H_left;
layers = (
{
layerId = m01;
shapes = (
{
closed = 1;
nodes = (
(372,0,ls),
(392,0,o),
(399,12,o),
(399,24,cs),
(399,36,o),
(392,46,o),
(372,46,cs),
(86,46,l),
(144,604,l),
(436,604,ls),
(456,604,o),
(463,615,o),
(463,627,cs),
(463,639,o),
(456,650,o),
(436,650,cs),
(125,650,ls),
(103,650,o),
(98,639,o),
(96,623,cs),
(33,27,ls),
(31,12,o),
(40,0,o),
(58,0,cs)
);
},
{
closed = 1;
nodes = (
(381,327,ls),
(401,327,o),
(411,338,o),
(411,350,cs),
(411,362,o),
(403,373,o),
(383,373,cs),
(96,373,l),
(91,327,l)
);
}
);
vertWidth = 0;
width = 477;
},
{
layerId = m002;
shapes = (
{
closed = 1;
nodes = (
(407,0,ls),
(437,0,o),
(454,26,o),
(454,52,cs),
(454,76,o),
(435,90,o),
(403,90,cs),
(140,90,l),
(189,560,l),
(466,560,ls),
(496,560,o),
(514,580,o),
(514,606,cs),
(514,631,o),
(493,650,o),
(462,650,cs),
(145,650,ls),
(114,650,o),
(97,639,o),
(94,611,cs),
(35,50,ls),
(32,22,o),
(45,0,o),
(75,0,cs)
);
},
{
closed = 1;
nodes = (
(410,288,ls),
(442,288,o),
(461,307,o),
(461,331,cs),
(461,357,o),
(439,373,o),
(409,373,cs),
(122,373,l),
(112,288,l)
);
}
);
vertWidth = 0;
width = 531;
}
);
unicode = 69;
},
{
color = 6;
glyphname = F;
kernLeft = H_left;
layers = (
{
layerId = m01;
shapes = (
{
closed = 1;
nodes = (
(80,0,o),
(82,15,o),
(83,25,cs),
(144,604,l),
(436,604,ls),
(456,604,o),
(463,615,o),
(463,627,cs),
(463,639,o),
(456,650,o),
(436,650,cs),
(125,650,ls),
(103,650,o),
(98,639,o),
(96,623,cs),
(33,27,ls),
(31,12,o),
(40,0,o),
(58,0,cs)
);
},
{
closed = 1;
nodes = (
(374,327,ls),
(394,327,o),
(402,338,o),
(402,350,cs),
(402,362,o),
(394,373,o),
(374,373,cs),
(97,373,l),
(92,327,l)
);
}
);
vertWidth = 0;
width = 477;
},
{
layerId = m002;
shapes = (
{
closed = 1;
nodes = (
(116,0,o),
(133,21,o),
(136,51,cs),
(190,560,l),
(454,560,ls),
(484,560,o),
(505,575,o),
(505,604,cs),
(505,632,o),
(484,650,o),
(453,650,cs),
(144,650,ls),
(113,650,o),
(98,638,o),
(95,610,cs),
(36,54,ls),
(33,27,o),
(47,0,o),
(75,0,cs)
);
},
{
closed = 1;
nodes = (
(400,278,ls),
(432,278,o),
(446,297,o),
(446,321,cs),
(446,347,o),
(425,363,o),
(395,363,cs),
(119,363,l),
(110,278,l)
);
}
);
vertWidth = 0;
width = 522;
}
);
unicode = 70;
},
{
color = 6;
glyphname = G;
kernLeft = O_left;
layers = (
{
layerId = m01;
shapes = (
{
closed = 1;
nodes = (
(285,-4,o),
(370,95,o),
(434,289,c),
(434,350,l),
(417,350,o),
(412,340,o),
(408,327,cs),
(344,138,o),
(255,42,o),
(193,42,cs),
(104,42,o),
(67,153,o),
(97,334,cs),
(126,504,o),
(208,609,o),
(313,609,cs),
(383,609,o),
(415,574,o),
(437,550,cs),
(448,539,o),
(463,532,o),
(474,542,cs),
(486,553,o),
(483,566,o),
(473,579,cs),
(448,611,o),
(388,655,o),
(320,655,cs),
(188,655,o),
(84,535,o),
(48,341,cs),
(9,128,o),
(60,-4,o),
(184,-4,cs)
);
},
{
closed = 1;
nodes = (
(426,-1,o),
(430,16,o),
(432,36,cs),
(462,323,ls),
(464,340,o),
(451,350,o),
(434,350,c),
(405,259,l),
(382,36,ls),
(380,15,o),
(383,1,o),
(403,0,cs)
);
}
);
vertWidth = 0;
width = 508;
},
{
layerId = m002;
shapes = (
{
closed = 1;
nodes = (
(303,-5,o),
(375,161,o),
(436,285,c),
(438,370,l),
(400,370,o),
(396,361,o),
(344,271,cs),
(313,217,o),
(235,85,o),
(196,85,cs),
(146,85,o),
(127,171,o),
(146,329,cs),
(162,462,o),
(197,565,o),
(311,565,cs),
(367,565,o),
(393,552,o),
(408,521,cs),
(423,490,o),
(438,477,o),
(471,486,cs),
(498,493,o),
(502,520,o),
(494,545,cs),
(472,614,o),
(402,655,o),
(311,655,cs),
(151,655,o),
(75,531,o),
(47,342,cs),
(17,139,o),
(46,-5,o),
(190,-5,cs)
);
},
{
closed = 1;
nodes = (
(444,0,o),
(454,18,o),
(457,42,cs),
(487,320,ls),
(490,351,o),
(469,370,o),
(438,370,c),
(381,276,l),
(357,49,ls),
(354,18,o),
(375,0,o),
(409,0,cs)
);
}
);
vertWidth = 0;
width = 533;
}
);
unicode = 71;
},
{
color = 6;
glyphname = H;
kernLeft = H_left;
kernRight = H_right;
layers = (
{
layerId = m01;
shapes = (
{
closed = 1;
nodes = (
(80,0,o),
(82,15,o),
(83,25,cs),
(146,619,ls),
(148,637,o),
(142,650,o),
(125,650,cs),
(106,650,o),
(98,639,o),
(96,623,cs),
(33,27,ls),
(31,12,o),
(40,0,o),
(58,0,cs)
);
},
{
closed = 1;
nodes = (
(427,327,l),
(432,373,l),
(95,373,l),
(90,327,l)
);
},
{
closed = 1;
nodes = (
(413,0,o),
(418,13,o),
(419,22,cs),
(483,621,ls),
(485,638,o),
(478,650,o),
(458,650,cs),
(440,650,o),
(434,638,o),
(433,628,cs),
(369,27,ls),
(368,15,o),
(371,0,o),
(394,0,cs)
);
}
);
vertWidth = 0;
width = 518;
},
{
layerId = m002;
shapes = (
{
closed = 1;
nodes = (
(120,0,o),
(134,20,o),
(136,40,cs),
(193,597,ls),
(197,632,o),
(179,650,o),
(150,650,cs),
(123,650,o),
(97,637,o),
(94,609,cs),
(36,49,ls),
(33,21,o),
(54,0,o),
(86,0,cs)
);
},
{
closed = 1;
nodes = (
(412,287,l),
(420,377,l),
(155,377,l),
(147,287,l)
);
},
{
closed = 1;
nodes = (
(448,0,o),
(468,17,o),
(470,37,cs),
(529,599,ls),
(532,631,o),
(511,650,o),
(480,650,cs),
(452,650,o),
(432,635,o),
(430,613,cs),
(371,49,ls),
(368,20,o),
(386,0,o),
(419,0,cs)
);
}
);
vertWidth = 0;
width = 566;
}
);
unicode = 72;
},
{
color = 6;
glyphname = I;
layers = (
{
layerId = m01;
shapes = (
{
closed = 1;
nodes = (
(126,0,l),
(196,650,l),
(145,650,l),
(76,0,l)
);
},
{
closed = 1;
nodes = (
(150,0,ls),
(170,0,o),
(174,11,o),
(174,23,cs),
(174,35,o),
(167,46,o),
(147,46,cs),
(58,46,ls),
(38,46,o),
(33,35,o),
(33,23,cs),
(33,11,o),
(41,0,o),
(61,0,cs)
);
},
{
closed = 1;
nodes = (
(213,604,ls),
(233,604,o),
(237,615,o),
(237,627,cs),
(237,639,o),
(230,650,o),
(210,650,cs),
(121,650,ls),
(101,650,o),
(96,639,o),
(96,627,cs),
(96,615,o),
(104,604,o),
(124,604,cs)
);
}
);
vertWidth = 0;
width = 272;
},
{
layerId = m002;
shapes = (
{
closed = 1;
nodes = (
(198,0,l),
(267,650,l),
(167,650,l),
(98,0,l)
);
},
{
closed = 1;
nodes = (
(215,0,ls),
(251,0,o),
(273,18,o),
(273,46,cs),
(273,73,o),
(254,90,o),
(224,90,cs),
(89,90,ls),
(53,90,o),
(31,72,o),
(31,44,cs),
(31,17,o),
(50,0,o),
(80,0,cs)
);
},
{
closed = 1;
nodes = (
(275,560,ls),
(311,560,o),
(333,578,o),
(333,606,cs),
(333,633,o),
(314,650,o),
(284,650,cs),
(149,650,ls),
(113,650,o),
(91,632,o),
(91,604,cs),
(91,577,o),
(110,560,o),
(140,560,cs)
);
}
);
vertWidth = 0;
width = 367;
}
);
unicode = 73;
},
{
color = 6;
glyphname = J;
kernRight = H_right;
layers = (
{
layerId = m01;
shapes = (
{
closed = 1;
nodes = (
(242,-5,o),
(291,57,o),
(306,205,cs),
(351,650,l),
(301,650,l),
(256,205,ls),
(244,88,o),
(206,41,o),
(141,41,cs),
(99,41,o),
(74,71,o),
(54,96,cs),
(43,110,o),
(28,114,o),
(17,103,cs),
(5,91,o),
(8,77,o),
(17,65,cs),
(46,28,o),
(87,-5,o),
(141,-5,cs)
);
},
{
closed = 1;
nodes = (
(371,604,ls),
(391,604,o),
(395,615,o),
(395,627,cs),
(395,639,o),
(388,650,o),
(368,650,cs),
(279,650,ls),
(259,650,o),
(254,639,o),
(254,627,cs),
(254,615,o),
(262,604,o),
(282,604,cs)
);
}
);
vertWidth = 0;
width = 429;
},
{
layerId = m002;
shapes = (
{
closed = 1;
nodes = (
(243,-4,o),
(317,54,o),
(332,193,cs),
(381,650,l),
(282,650,l),
(236,217,ls),
(224,107,o),
(195,85,o),
(158,85,cs),
(131,85,o),
(101,101,o),
(69,133,cs),
(47,155,o),
(16,152,o),
(-4,128,cs),
(-19,110,o),
(-16,79,o),
(-1,63,cs),
(41,19,o),
(91,-4,o),
(146,-4,cs)
);
},
{
closed = 1;
nodes = (
(390,560,ls),
(426,560,o),
(448,578,o),
(448,606,cs),
(448,633,o),
(429,650,o),
(399,650,cs),
(264,650,ls),
(228,650,o),
(206,632,o),
(206,604,cs),
(206,577,o),
(225,560,o),
(255,560,cs)
);
}
);
vertWidth = 0;
width = 481;
}
);
unicode = 74;
},
{
color = 6;
glyphname = K;
kernLeft = H_left;
layers = (
{
layerId = m01;
shapes = (
{
closed = 1;
nodes = (
(409,0,o),
(419,10,o),
(419,23,cs),
(419,30,o),
(416,36,o),
(411,42,cs),
(144,374,l),
(139,332,l),
(462,602,ls),
(475,614,o),
(481,623,o),
(481,631,cs),
(481,643,o),
(473,650,o),
(460,650,cs),
(451,650,o),
(443,647,o),
(431,637,cs),
(104,360,l),
(103,348,l),
(365,19,ls),
(373,9,o),
(383,0,o),
(396,0,cs)
);
},
{
closed = 1;
nodes = (
(79,0,o),
(82,18,o),
(83,31,cs),
(146,619,ls),
(148,637,o),
(144,650,o),
(125,650,cs),
(105,650,o),
(98,639,o),
(96,623,cs),
(33,32,ls),
(31,17,o),
(40,0,o),
(58,0,cs)
);
}
);
vertWidth = 0;
width = 467;
},
{
layerId = m002;
shapes = (
{
closed = 1;
nodes = (
(452,0,o),
(473,23,o),
(473,46,cs),
(473,59,o),
(467,71,o),
(456,84,cs),
(202,379,l),
(198,327,l),
(506,562,ls),
(520,573,o),
(530,587,o),
(531,602,cs),
(532,625,o),
(513,650,o),
(484,650,cs),
(468,650,o),
(454,643,o),
(439,631,cs),
(139,382,l),
(133,312,l),
(378,25,ls),
(391,10,o),
(409,0,o),
(428,0,cs)
);
},
{
closed = 1;
nodes = (
(119,0,o),
(133,19,o),
(136,45,cs),
(195,597,ls),
(199,636,o),
(173,650,o),
(149,650,cs),
(123,650,o),
(99,637,o),
(96,609,cs),
(36,54,ls),
(33,24,o),
(56,0,o),
(88,0,cs)
);
}
);
vertWidth = 0;
width = 518;
}
);
unicode = 75;
},
{
color = 6;
glyphname = L;
kernLeft = H_left;
layers = (
{
layerId = m01;
shapes = (
{
closed = 1;
nodes = (
(359,0,ls),
(377,0,o),
(385,11,o),
(385,24,cs),
(385,38,o),
(376,46,o),
(358,46,cs),
(86,46,l),
(146,619,ls),
(148,637,o),
(145,650,o),
(125,650,cs),
(105,650,o),
(98,639,o),
(96,623,cs),
(33,27,ls),
(31,12,o),
(40,0,o),
(58,0,c)
);
}
);
vertWidth = 0;
width = 432;
},
{
layerId = m002;
shapes = (
{
closed = 1;
nodes = (
(394,0,ls),
(424,0,o),
(441,22,o),
(441,46,cs),
(441,70,o),
(418,91,o),
(388,91,cs),
(139,91,l),
(193,597,ls),
(197,639,o),
(172,650,o),
(147,650,cs),
(118,650,o),
(97,637,o),
(94,609,cs),
(35,49,ls),
(32,21,o),
(48,0,o),
(78,0,c)
);
}
);
vertWidth = 0;
width = 486;
}
);
unicode = 76;
},
{
color = 6;
glyphname = M;
kernLeft = H_left;
kernRight = H_right;
layers = (
{
layerId = m01;
shapes = (
{
closed = 1;
nodes = (
(10,0,o),
(22,7,o),
(31,25,cs),
(297,570,l),
(281,573,l),
(344,24,ls),
(345,14,o),
(349,0,o),
(372,0,cs),
(391,0,o),
(399,17,o),
(403,24,cs),
(668,572,l),
(652,575,l),
(716,24,ls),
(717,14,o),
(722,0,o),
(743,0,cs),
(759,0,o),
(768,11,o),
(766,26,cs),
(697,622,ls),
(695,638,o),
(693,650,o),
(665,650,cs),
(650,650,o),
(643,635,o),
(638,624,cs),
(372,76,l),
(388,73,l),
(324,631,ls),
(323,639,o),
(316,650,o),
(298,650,cs),
(281,650,o),
(275,639,o),
(268,625,cs),
(-18,38,ls),
(-28,17,o),
(-20,0,o),
(-1,0,cs)
);
}
);
vertWidth = 0;
width = 814;
},
{
layerId = m002;
shapes = (
{
closed = 1;
nodes = (
(50,0,o),
(79,9,o),
(90,33,cs),
(292,459,l),
(285,462,l),
(331,40,ls),
(333,18,o),
(350,0,o),
(380,0,c),
(420,0,o),
(430,19,o),
(436,31,cs),
(642,459,l),
(636,462,l),
(678,40,ls),
(680,19,o),
(701,0,o),
(732,0,cs),
(761,0,o),
(781,20,o),
(778,46,cs),
(717,606,ls),
(714,635,o),
(709,650,o),
(675,650,c),
(644,650,o),
(626,638,o),
(615,616,cs),
(405,183,l),
(412,180,l),
(366,606,ls),
(363,635,o),
(352,650,o),
(312,650,c),
(284,650,o),
(274,638,o),
(264,617,cs),
(-7,64,ls),
(-26,23,o),
(5,0,o),
(32,0,cs)
);
}
);
vertWidth = 0;
width = 824;
}
);
unicode = 77;
},
{
color = 6;
glyphname = N;
kernLeft = H_left;
kernRight = H_right;
layers = (
{
layerId = m01;
shapes = (
{
closed = 1;
nodes = (
(80,0,o),
(82,16,o),
(83,28,cs),
(142,590,l),
(121,586,l),
(368,18,ls),
(373,7,o),
(383,0,o),
(396,0,cs),
(414,0,o),
(417,9,o),
(419,25,cs),
(482,619,ls),
(484,637,o),
(480,650,o),
(461,650,cs),
(441,650,o),
(434,639,o),
(432,623,cs),
(374,75,l),
(395,79,l),
(156,630,ls),
(151,641,o),
(142,650,o),
(124,650,cs),
(103,650,o),
(98,639,o),
(96,623,cs),
(33,27,ls),
(31,12,o),
(40,0,o),
(58,0,cs)
);
}
);
vertWidth = 0;
width = 517;
},
{
layerId = m002;
shapes = (
{
closed = 1;
nodes = (
(115,0,o),
(134,19,o),
(136,42,cs),
(182,489,l),
(158,485,l),
(375,28,ls),
(384,10,o),
(400,0,o),
(425,0,c),
(459,0,o),
(468,19,o),
(470,40,cs),
(528,597,ls),
(531,629,o),
(514,653,o),
(481,653,cs),
(453,653,o),
(432,637,o),
(429,609,cs),
(384,175,l),
(408,179,l),
(199,621,ls),
(189,642,o),
(172,650,o),
(149,650,cs),
(117,650,o),
(97,636,o),
(94,609,cs),
(36,49,ls),
(33,21,o),
(53,0,o),
(82,0,cs)
);
}
);
vertWidth = 0;
width = 566;
}
);
unicode = 78;
},
{
color = 6;
glyphname = O;
kernLeft = O_left;
kernRight = O_right;
layers = (
{
layerId = m01;
shapes = (
{
closed = 1;
nodes = (
(339,-5,o),
(417,114,o),
(440,347,cs),
(458,521,o),
(387,655,o),
(271,655,cs),
(142,655,o),
(64,532,o),
(41,299,cs),
(23,125,o),
(94,-5,o),
(209,-5,cs)
);
},
{
closed = 1;
nodes = (
(128,41,o),
(77,149,o),
(91,292,cs),
(112,499,o),
(172,609,o),
(271,609,cs),
(353,609,o),
(404,497,o),
(390,354,cs),
(369,147,o),
(309,41,o),
(210,41,cs)
);
}
);
vertWidth = 0;
width = 484;
},
{
layerId = m002;
shapes = (
{
closed = 1;
nodes = (
(375,-5,o),
(472,131,o),
(494,338,cs),
(513,525,o),
(431,655,o),
(302,655,c),
(162,655,o),
(65,519,o),
(43,312,cs),
(24,125,o),
(106,-5,o),
(235,-5,c)
);
},
{
closed = 1;
nodes = (
(171,85,o),
(129,176,o),
(142,312,cs),
(156,463,o),
(214,565,o),
(294,565,c),
(366,565,o),
(408,474,o),
(395,338,cs),
(381,187,o),
(323,85,o),
(243,85,c)
);
}
);
vertWidth = 0;
width = 538;
}
);
unicode = 79;
},
{
color = 6;
glyphname = P;
kernLeft = H_left;
layers = (
{
layerId = m01;
shapes = (
{
closed = 1;
nodes = (
(80,0,o),
(82,19,o),
(83,29,cs),
(144,604,l),
(311,602,o),
(409,556,o),
(401,477,cs),
(390,372,o),
(268,338,o),
(92,339,c),
(88,294,l),
(283,293,o),
(437,336,o),
(451,472,cs),
(463,593,o),
(332,650,o),
(125,650,cs),
(105,650,o),
(98,640,o),
(96,623,cs),
(33,31,ls),
(31,16,o),
(40,0,o),
(58,0,cs)
);
}
);
vertWidth = 0;
width = 481;
},
{
layerId = m002;
shapes = (
{
closed = 1;
nodes = (
(117,0,o),
(133,17,o),
(135,39,cs),
(189,559,l),
(332,558,o),
(384,533,o),
(377,472,cs),
(367,382,o),
(238,359,o),
(119,357,c),
(110,267,l),
(270,269,o),
(458,289,o),
(477,467,cs),
(492,602,o),
(351,650,o),
(140,650,cs),
(114,650,o),
(97,637,o),
(94,609,cs),
(35,48,ls),
(32,21,o),
(50,0,o),
(83,0,cs)
);
}
);
vertWidth = 0;
width = 508;
}
);
unicode = 80;
},
{
color = 6;
glyphname = Q;
kernLeft = O_left;
kernRight = O_right;
layers = (
{
layerId = m01;
shapes = (
{
closed = 1;
nodes = (
(339,-5,o),
(417,114,o),
(440,347,cs),
(458,521,o),
(387,655,o),
(271,655,cs),
(142,655,o),
(64,532,o),
(41,299,cs),
(23,125,o),
(94,-5,o),
(209,-5,cs)
);
},
{
closed = 1;
nodes = (
(128,41,o),
(77,149,o),
(91,292,cs),
(112,499,o),
(172,609,o),
(271,609,cs),
(353,609,o),
(404,497,o),
(390,354,cs),
(369,147,o),
(309,41,o),
(210,41,cs)
);
},
{
closed = 1;
nodes = (
(414,-11,o),
(414,5,o),
(402,22,cs),
(291,172,ls),
(276,194,o),
(259,200,o),
(246,188,cs),
(235,179,o),
(237,162,o),
(250,144,cs),
(360,-6,ls),
(373,-22,o),
(389,-28,o),
(401,-20,cs)
);
}
);
vertWidth = 0;
width = 484;
},
{
layerId = m002;
shapes = (
{
closed = 1;
nodes = (
(375,-5,o),
(472,131,o),
(494,338,cs),
(513,525,o),
(431,655,o),
(302,655,c),
(162,655,o),
(65,519,o),
(43,312,cs),
(24,125,o),
(106,-5,o),
(235,-5,c)
);
},
{
closed = 1;
nodes = (
(171,85,o),
(129,176,o),
(142,312,cs),
(156,463,o),
(214,565,o),
(294,565,c),
(366,565,o),
(408,474,o),
(395,338,cs),
(381,187,o),
(323,85,o),
(243,85,c)
);
},
{
closed = 1;
nodes = (
(460,2,o),
(462,28,o),
(445,52,cs),
(337,201,ls),
(316,230,o),
(283,235,o),
(262,218,cs),
(243,202,o),
(239,177,o),
(260,150,cs),
(366,5,ls),
(386,-21,o),
(417,-34,o),
(439,-16,cs)
);
}
);
vertWidth = 0;
width = 538;
}
);
unicode = 81;
},
{
color = 6;
glyphname = R;
kernLeft = H_left;
layers = (
{
layerId = m01;
shapes = (
{
closed = 1;
nodes = (
(79,0,o),
(81,16,o),
(83,31,cs),
(143,604,l),
(316,602,o),
(400,567,o),
(391,491,cs),
(382,413,o),
(256,348,o),
(92,348,c),
(88,304,l),
(284,304,o),
(432,380,o),
(441,486,cs),
(451,606,o),
(338,650,o),
(124,650,cs),
(102,650,o),
(97,639,o),
(95,623,cs),
(33,33,ls),
(31,16,o),
(39,0,o),
(57,0,cs)
);
},
{
closed = 1;
nodes = (
(376,0,o),
(386,7,o),
(388,15,cs),
(390,23,o),
(388,35,o),
(376,50,cs),
(156,329,l),
(98,322,l),
(335,19,ls),
(345,6,o),
(358,0,o),
(366,0,cs)
);
}
);
vertWidth = 0;
width = 470;
},
{
layerId = m002;
shapes = (
{
closed = 1;
nodes = (
(113,0,o),
(131,18,o),
(135,53,cs),
(189,563,l),
(350,562,o),
(404,551,o),
(396,479,cs),
(388,413,o),
(288,351,o),
(119,351,c),
(110,271,l),
(318,271,o),
(486,335,o),
(496,477,cs),
(507,622,o),
(376,650,o),
(147,650,cs),
(116,650,o),
(97,637,o),
(94,609,cs),
(36,60,ls),
(33,27,o),
(45,0,o),
(78,0,cs)
);
},
{
closed = 1;
nodes = (
(413,0,o),
(432,9,o),
(440,26,cs),
(446,39,o),
(446,58,o),
(436,71,cs),
(257,291,l),
(139,285,l),
(347,23,ls),
(363,2,o),
(381,0,o),
(394,0,cs)
);
}
);
vertWidth = 0;
width = 526;
}
);
unicode = 82;
},
{
color = 6;
glyphname = S;
layers = (
{
layerId = m01;
shapes = (
{
closed = 1;
nodes = (
(270,-5,o),
(355,49,o),
(367,162,cs),
(377,258,o),
(316,323,o),
(236,369,cs),
(154,416,o),
(103,455,o),
(109,512,cs),
(115,569,o),
(170,609,o),
(265,609,cs),
(316,609,o),
(347,583,o),
(360,547,cs),
(365,534,o),
(379,528,o),
(392,532,cs),
(406,536,o),
(408,552,o),
(402,570,cs),
(386,617,o),
(341,655,o),
(263,655,cs),
(135,655,o),
(69,590,o),
(61,516,cs),
(53,436,o),
(119,378,o),
(198,333,cs),
(286,283,o),
(324,236,o),
(318,169,cs),
(310,82,o),
(240,41,o),
(170,41,cs),
(107,41,o),
(70,68,o),
(62,99,cs),
(58,116,o),
(43,122,o),
(29,118,cs),
(14,114,o),
(12,98,o),
(16,82,cs),
(29,30,o),
(85,-5,o),
(154,-5,cs)
);
}
);
vertWidth = 0;
width = 422;
},
{
layerId = m002;
shapes = (
{
closed = 1;
nodes = (
(351,-5,o),
(436,61,o),
(447,168,cs),
(460,285,o),
(384,350,o),
(316,388,cs),
(255,422,o),
(184,467,o),
(189,508,cs),
(194,546,o),
(235,566,o),
(296,566,cs),
(347,566,o),
(382,542,o),
(397,515,cs),
(412,488,o),
(440,481,o),
(467,494,cs),
(490,506,o),
(496,528,o),
(486,551,cs),
(456,617,o),
(402,655,o),
(311,655,cs),
(173,655,o),
(96,604,o),
(86,511,cs),
(76,415,o),
(186,346,o),
(251,311,cs),
(322,273,o),
(357,227,o),
(352,172,cs),
(347,122,o),
(298,91,o),
(224,91,cs),
(162,91,o),
(132,130,o),
(126,151,cs),
(117,183,o),
(87,193,o),
(62,185,cs),
(40,178,o),
(15,153,o),
(27,113,cs),
(42,61,o),
(113,-5,o),
(225,-5,cs)
);
}
);
vertWidth = 0;
width = 515;
}
);
unicode = 83;
},
{
color = 6;
glyphname = T;
layers = (
{
layerId = m01;
shapes = (
{
closed = 1;
nodes = (
(234,0,o),
(240,18,o),
(242,34,cs),
(304,624,l),
(254,624,l),
(192,37,ls),
(190,17,o),
(195,0,o),
(214,0,cs)
);
},
{
closed = 1;
nodes = (
(468,604,ls),
(488,604,o),
(492,615,o),
(492,627,cs),
(492,639,o),
(485,650,o),
(465,650,cs),
(91,650,ls),
(71,650,o),
(66,639,o),
(66,627,cs),
(66,615,o),
(74,604,o),
(94,604,cs)
);
}
);
vertWidth = 0;
width = 497;
},
{
layerId = m002;
shapes = (
{
closed = 1;
nodes = (
(253,-2,o),
(269,22,o),
(271,43,cs),
(326,574,l),
(225,574,l),
(171,49,ls),
(168,21,o),
(189,-2,o),
(220,-2,cs)
);
},
{
closed = 1;
nodes = (
(468,560,ls),
(500,560,o),
(515,580,o),
(515,604,cs),
(515,630,o),
(491,650,o),
(461,650,cs),
(93,650,ls),
(63,650,o),
(48,630,o),
(47,604,cs),
(46,580,o),
(68,560,o),
(100,560,cs)
);
}
);
vertWidth = 0;
width = 502;
}
);
unicode = 84;
},
{
color = 6;
glyphname = U;
kernLeft = H_left;
kernRight = H_right;
layers = (
{
layerId = m01;
shapes = (
{
closed = 1;
nodes = (
(331,-4,o),
(425,98,o),
(439,234,cs),
(480,624,ls),
(482,639,o),
(473,650,o),
(455,650,cs),
(437,650,o),
(431,638,o),
(430,626,cs),
(388,234,ls),
(376,124,o),
(304,42,o),
(220,42,cs),
(142,42,o),
(92,120,o),
(104,225,cs),
(146,619,ls),
(148,634,o),
(138,650,o),
(123,650,cs),
(107,650,o),
(97,636,o),
(95,620,cs),
(54,228,ls),
(40,95,o),
(111,-4,o),
(219,-4,cs)
);
}
);
vertWidth = 0;
width = 514;
},
{
layerId = m002;
shapes = (
{
closed = 1;
nodes = (
(369,-4,o),
(474,105,o),
(490,250,cs),
(529,604,ls),
(532,630,o),
(518,650,o),
(480,650,cs),
(448,650,o),
(432,629,o),
(429,606,cs),
(390,250,ls),
(380,156,o),
(318,86,o),
(245,86,cs),
(184,86,o),
(146,152,o),
(156,241,cs),
(195,605,ls),
(198,629,o),
(184,650,o),
(148,650,cs),
(113,650,o),
(96,629,o),
(94,606,cs),
(56,244,ls),
(41,102,o),
(121,-4,o),
(244,-4,cs)
);
}
);
vertWidth = 0;
width = 566;
}
);
unicode = 85;
},
{
color = 6;
glyphname = V;
kernLeft = V_left;
kernRight = V_right;
layers = (
{
layerId = m01;
shapes = (
{
closed = 1;
nodes = (
(186,0,o),
(189,11,o),
(195,25,cs),
(432,618,ls),
(440,638,o),
(430,650,o),
(415,650,cs),
(396,650,o),
(388,642,o),
(381,625,cs),
(202,171,l),
(163,59,l),
(176,57,l),
(164,169,l),
(97,626,ls),
(96,636,o),
(91,650,o),
(69,650,cs),
(51,650,o),
(45,639,o),
(47,624,cs),
(138,28,ls),
(140,15,o),
(149,0,o),
(167,0,cs)
);
}
);
vertWidth = 0;
width = 419;
},
{
layerId = m002;
shapes = (
{
closed = 1;
nodes = (
(213,0,o),
(229,17,o),
(237,36,cs),
(466,591,ls),
(480,625,o),
(458,650,o),
(426,650,cs),
(397,650,o),
(377,638,o),
(369,618,cs),
(245,304,l),
(190,149,l),
(209,147,l),
(188,304,l),
(146,610,ls),
(143,633,o),
(121,650,o),
(89,650,cs),
(60,650,o),
(41,634,o),
(46,604,cs),
(135,46,ls),
(139,21,o),
(154,0,o),
(184,0,cs)
);
}
);
vertWidth = 0;
width = 456;
}
);
unicode = 86;
},
{
color = 6;
glyphname = W;
kernLeft = V_left;
kernRight = V_right;
layers = (
{
layerId = m01;
shapes = (
{
closed = 1;
nodes = (
(186,0,o),
(191,15,o),
(195,26,cs),
(379,495,l),
(409,595,l),
(397,596,l),
(408,492,l),
(478,25,ls),
(480,13,o),
(488,0,o),
(505,0,c),
(524,0,o),
(528,11,o),
(534,25,cs),
(772,618,ls),
(781,639,o),
(767,650,o),
(753,650,cs),
(734,650,o),
(729,644,o),
(721,625,cs),
(548,188,l),
(503,54,l),
(515,52,l),
(502,192,l),
(437,626,ls),
(435,637,o),
(431,650,o),
(407,650,c),
(391,650,o),
(382,637,o),
(378,626,cs),
(208,189,l),
(163,59,l),
(176,57,l),
(162,189,l),
(97,626,ls),
(95,636,o),
(91,650,o),
(69,650,c),
(51,650,o),
(45,639,o),
(47,624,cs),
(138,28,ls),
(140,12,o),
(152,0,o),
(166,0,c)
);
}
);
vertWidth = 0;
width = 759;
},
{
layerId = m002;
shapes = (
{
closed = 1;
nodes = (
(209,0,o),
(226,14,o),
(238,43,cs),
(388,412,l),
(414,493,l),
(410,494,l),
(418,412,l),
(472,44,ls),
(476,15,o),
(496,0,o),
(523,0,cs),
(548,0,o),
(565,14,o),
(577,43,cs),
(804,591,ls),
(814,615,o),
(799,650,o),
(761,650,cs),
(729,650,o),
(712,630,o),
(706,616,cs),
(572,276,l),
(529,148,l),
(540,146,l),
(526,276,l),
(477,610,ls),
(473,635,o),
(458,650,o),
(424,650,cs),
(391,650,o),
(378,634,o),
(370,612,cs),
(242,277,l),
(196,151,l),
(206,149,l),
(190,280,l),
(145,610,ls),
(142,633,o),
(121,650,o),
(89,650,cs),
(60,650,o),
(40,634,o),
(45,604,cs),
(133,44,ls),
(138,15,o),
(157,0,o),
(184,0,cs)
);
}
);
vertWidth = 0;
width = 794;
}
);
unicode = 87;
},
{
color = 6;
glyphname = X;
layers = (
{
layerId = m01;
shapes = (
{
closed = 1;
nodes = (
(23,-3,o),
(40,-2,o),
(50,13,cs),
(240,301,l),
(246,301,l),
(447,609,ls),
(457,624,o),
(454,638,o),
(445,645,cs),
(434,653,o),
(415,652,o),
(405,637,cs),
(220,352,l),
(213,351,l),
(7,38,ls),
(-1,26,o),
(2,13,o),
(12,6,cs)
);
},
{
closed = 1;
nodes = (
(387,8,o),
(394,20,o),
(387,35,cs),
(248,345,l),
(120,631,ls),
(112,650,o),
(91,654,o),
(80,649,cs),
(68,645,o),
(65,632,o),
(73,614,cs),
(210,308,l),
(339,20,ls),
(347,1,o),
(365,-3,o),
(378,3,cs)
);
}
);
vertWidth = 0;
width = 458;
},
{
layerId = m002;
shapes = (
{
closed = 1;
nodes = (
(42,-3,o),
(83,-8,o),
(98,16,cs),
(265,279,l),
(280,279,l),
(483,578,ls),
(499,602,o),
(492,623,o),
(473,639,cs),
(454,655,o),
(414,656,o),
(398,631,cs),
(236,375,l),
(221,375,l),
(13,69,ls),
(-1,48,o),
(3,29,o),
(22,13,cs)
);
},
{
closed = 1;
nodes = (
(421,17,o),
(429,36,o),
(418,61,cs),
(281,367,l),
(167,623,ls),
(154,651,o),
(119,654,o),
(97,647,cs),
(71,637,o),
(60,617,o),
(74,586,cs),
(208,286,l),
(323,28,ls),
(336,-1,o),
(378,-6,o),
(401,6,cs)
);
}
);
vertWidth = 0;
width = 509;
}
);
unicode = 88;
},
{
color = 6;
glyphname = Y;
layers = (
{
layerId = m01;
shapes = (
{
closed = 1;
nodes = (
(45,642,o),
(43,629,o),
(50,613,cs),
(220,241,l),
(253,290,l),
(97,630,ls),
(92,642,o),
(81,655,o),
(62,648,cs)
);
},
{
closed = 1;
nodes = (
(87,-3,o),
(105,-3,o),
(114,12,cs),
(465,609,ls),
(474,624,o),
(470,639,o),
(455,647,cs),
(443,653,o),
(431,650,o),
(422,635,cs),
(72,38,ls),
(65,26,o),
(66,13,o),
(76,6,cs)
);
}
);
vertWidth = 0;
width = 454;
},
{
layerId = m002;
shapes = (
{
closed = 1;
nodes = (
(43,636,o),
(38,608,o),
(49,584,cs),
(217,223,l),
(276,314,l),
(142,621,ls),
(132,644,o),
(105,657,o),
(74,646,cs)
);
},
{
closed = 1;
nodes = (
(97,-7,o),
(139,-2,o),
(153,22,cs),
(485,578,ls),
(499,602,o),
(492,630,o),
(466,645,cs),
(445,656,o),
(412,650,o),
(396,624,cs),
(66,75,ls),
(53,54,o),
(58,25,o),
(77,9,cs)
);
}
);
vertWidth = 0;
width = 479;
}
);
unicode = 89;
},
{
color = 6;
glyphname = Z;
layers = (
{
layerId = m01;
shapes = (
{
closed = 1;
nodes = (
(374,0,ls),
(394,0,o),
(399,13,o),
(398,25,cs),
(397,37,o),
(391,46,o),
(371,46,cs),
(53,46,l),
(66,25,l),
(456,609,ls),
(470,631,o),
(454,650,o),
(436,650,c),
(101,650,ls),
(81,650,o),
(75,637,o),
(76,625,cs),
(77,613,o),
(84,604,o),
(104,604,cs),
(424,604,l),
(411,625,l),
(18,39,ls),
(6,21,o),
(17,0,o),
(40,0,c)
);
}
);
vertWidth = 0;
width = 476;
},
{
layerId = m002;
shapes = (
{
closed = 1;
nodes = (
(376,0,ls),
(408,0,o),
(423,19,o),
(423,43,cs),
(423,70,o),
(403,90,o),
(373,90,cs),
(110,90,l),
(123,65,l),
(474,577,ls),
(495,608,o),
(480,650,o),
(437,650,c),
(112,650,ls),
(82,650,o),
(64,630,o),
(66,604,cs),
(67,580,o),
(87,560,o),
(119,560,cs),
(376,560,l),
(363,585,l),
(13,70,ls),
(-6,42,o),
(11,0,o),
(55,0,c)
);
}
);
vertWidth = 0;
width = 500;
}
);
unicode = 90;
},
{
color = 6;
glyphname = a;
kernLeft = o_left;
kernRight = n_right;
layers = (
{
layerId = m01;
shapes = (
{
closed = 1;
nodes = (
(175,-1,o),
(212,35,o),
(235,82,c),
(249,244,l),
(234,159,o),
(188,45,o),
(132,45,cs),
(80,45,o),
(61,108,o),
(68,173,cs),
(77,258,o),
(118,308,o),
(167,308,cs),
(195,308,o),
(236,296,o),
(255,267,c),
(260,313,l),
(235,341,o),
(198,354,o),
(168,354,cs),
(94,354,o),
(30,291,o),
(18,176,cs),
(9,88,o),
(44,-1,o),
(131,-1,cs)
);
},
{
closed = 1;
nodes = (
(260,0,o),
(273,10,o),
(275,28,cs),
(306,320,ls),
(308,340,o),
(296,350,o),
(284,350,cs),
(271,350,o),
(258,341,o),
(256,323,cs),
(225,28,ls),
(223,9,o),
(235,0,o),
(248,0,cs)
);
}
);
vertWidth = 0;
width = 352;
},
{
layerId = m002;
shapes = (
{
closed = 1;
nodes = (
(192,-1,o),
(216,75,o),
(239,114,c),
(228,262,l),
(207,130,o),
(178,89,o),
(145,89,cs),
(120,89,o),
(110,119,o),
(116,170,cs),
(123,236,o),
(145,270,o),
(176,270,cs),
(198,270,o),
(230,259,o),
(272,198,c),
(284,303,l),
(259,337,o),
(211,360,o),
(177,360,cs),
(98,360,o),
(31,294,o),
(19,179,cs),
(10,91,o),
(40,-1,o),
(126,-1,cs)
);
},
{
closed = 1;
nodes = (
(274,0,o),
(300,14,o),
(303,43,cs),
(330,300,ls),
(333,333,o),
(308,350,o),
(281,350,cs),
(256,350,o),
(235,337,o),
(232,308,cs),
(205,49,ls),
(202,17,o),
(223,0,o),
(250,0,cs)
);
}
);
vertWidth = 0;
width = 378;
}
);
unicode = 97;
},
{
color = 6;
glyphname = b;
kernLeft = h_left;
kernRight = o_right;
layers = (
{
layerId = m01;
shapes = (
{
closed = 1;
nodes = (
(59,0,o),
(71,7,o),
(73,22,cs),
(137,624,ls),
(139,640,o),
(126,650,o),
(112,650,cs),
(101,650,o),
(89,644,o),
(87,629,cs),
(23,27,ls),
(21,9,o),
(34,0,o),
(48,0,cs)
);
},
{
closed = 1;
nodes = (
(227,-1,o),
(291,55,o),
(303,170,cs),
(312,258,o),
(277,354,o),
(190,354,cs),
(146,354,o),
(109,311,o),
(86,264,c),
(78,138,l),
(95,199,o),
(141,308,o),
(189,308,cs),
(241,308,o),
(260,238,o),
(253,173,cs),
(244,88,o),
(203,45,o),
(154,45,cs),
(126,45,o),
(85,50,o),
(66,79,c),
(61,33,l),
(86,5,o),
(123,-1,o),
(153,-1,cs)
);
}
);
vertWidth = 0;
width = 355;
},
{
layerId = m002;
shapes = (
{
closed = 1;
nodes = (
(101,0,o),
(123,24,o),
(127,57,cs),
(185,597,ls),
(188,625,o),
(173,650,o),
(138,650,cs),
(108,650,o),
(88,629,o),
(85,602,cs),
(26,57,ls),
(22,21,o),
(39,0,o),
(72,0,cs)
);
},
{
closed = 1;
nodes = (
(261,-1,o),
(330,63,o),
(343,178,cs),
(355,291,o),
(314,360,o),
(236,360,cs),
(189,360,o),
(152,329,o),
(125,269,c),
(120,90,l),
(143,206,o),
(190,270,o),
(215,270,cs),
(238,270,o),
(249,238,o),
(243,186,cs),
(236,121,o),
(214,86,o),
(184,86,cs),
(155,86,o),
(140,90,o),
(89,168,c),
(76,56,l),
(98,23,o),
(143,-1,o),
(183,-1,cs)
);
}
);
vertWidth = 0;
width = 394;
}
);
unicode = 98;
},
{
color = 6;
glyphname = c;
kernLeft = o_left;
layers = (
{
layerId = m01;
shapes = (
{
closed = 1;
nodes = (
(187,-1,o),
(226,32,o),
(251,77,cs),
(256,87,o),
(253,101,o),
(241,108,cs),
(228,115,o),
(213,111,o),
(208,101,cs),
(189,65,o),
(162,45,o),
(136,45,cs),
(80,45,o),
(61,108,o),
(68,173,cs),
(77,258,o),
(118,308,o),
(167,308,cs),
(190,308,o),
(208,295,o),
(218,278,cs),
(223,270,o),
(235,265,o),
(248,272,cs),
(260,279,o),
(263,294,o),
(258,301,cs),
(239,331,o),
(209,354,o),
(168,354,cs),
(94,354,o),
(30,291,o),
(18,176,cs),
(9,88,o),
(44,-1,o),
(131,-1,cs)
);
}
);
vertWidth = 0;
width = 314;
},
{
layerId = m002;
shapes = (
{
closed = 1;
nodes = (
(212,-4,o),
(253,35,o),
(277,78,cs),
(288,98,o),
(281,124,o),
(260,135,cs),
(237,147,o),
(212,140,o),
(201,120,cs),
(186,93,o),
(172,81,o),
(157,81,cs),
(128,81,o),
(113,119,o),
(120,181,cs),
(127,249,o),
(152,276,o),
(184,276,cs),
(200,276,o),
(207,271,o),
(212,264,cs),
(224,247,o),
(247,238,o),
(268,251,cs),
(290,264,o),
(295,291,o),
(284,307,cs),
(264,338,o),
(230,360,o),
(185,360,cs),
(110,360,o),
(32,300,o),
(20,188,cs),
(7,69,o),
(58,-4,o),
(153,-4,cs)
);
}
);
vertWidth = 0;
width = 342;
}
);
unicode = 99;
},
{
color = 6;
glyphname = d;
kernLeft = o_left;
layers = (
{
layerId = m01;
shapes = (
{
closed = 1;
nodes = (
(175,-1,o),
(212,35,o),
(235,82,c),
(249,244,l),
(234,159,o),
(188,45,o),
(132,45,cs),
(80,45,o),
(61,108,o),
(68,173,cs),
(77,258,o),
(118,308,o),
(167,308,cs),
(195,308,o),
(236,296,o),
(255,267,c),
(260,313,l),
(235,341,o),
(198,354,o),
(168,354,cs),
(94,354,o),
(30,291,o),
(18,176,cs),
(9,88,o),
(44,-1,o),
(131,-1,cs)
);
},
{
closed = 1;
nodes = (
(260,0,o),
(273,10,o),
(275,28,cs),
(337,620,ls),
(339,640,o),
(327,650,o),
(315,650,cs),
(302,650,o),
(289,641,o),
(287,623,cs),
(225,28,ls),
(223,9,o),
(235,0,o),
(248,0,cs)
);
}
);
vertWidth = 0;
width = 362;
},
{
layerId = m002;
shapes = (
{
closed = 1;
nodes = (
(192,-1,o),
(216,75,o),
(239,114,c),
(228,262,l),
(207,130,o),
(178,89,o),
(145,89,cs),
(120,89,o),
(110,119,o),
(116,170,cs),
(123,236,o),
(145,270,o),
(176,270,cs),
(198,270,o),
(230,259,o),
(272,198,c),
(284,303,l),
(259,337,o),
(211,360,o),
(177,360,cs),
(98,360,o),
(31,294,o),
(19,179,cs),
(10,91,o),
(40,-1,o),
(126,-1,cs)
);
},
{
closed = 1;
nodes = (
(281,0,o),
(303,24,o),
(307,57,cs),
(365,597,ls),
(368,625,o),
(353,650,o),
(318,650,cs),
(288,650,o),
(268,629,o),
(265,602,cs),
(206,57,ls),
(202,21,o),
(219,0,o),
(252,0,cs)
);
}
);
vertWidth = 0;
width = 392;
}
);
unicode = 100;
},
{
color = 6;
glyphname = e;
kernLeft = o_left;
layers = (
{
layerId = m01;
shapes = (
{
closed = 1;
nodes = (
(187,-1,o),
(226,32,o),
(251,77,cs),
(256,87,o),
(253,101,o),
(241,108,cs),
(228,115,o),
(213,111,o),
(208,101,cs),
(189,65,o),
(162,45,o),
(136,45,cs),
(80,45,o),
(61,108,o),
(68,173,cs),
(77,258,o),
(118,308,o),
(167,308,cs),
(198,308,o),
(212,293,o),
(212,281,cs),
(212,259,o),
(121.176,194.647,o),
(60,157,c),
(66,109,l),
(146,159,o),
(263,233,o),
(263,285,cs),
(263,321.178,o),
(216,354,o),
(168,354,cs),
(94,354,o),
(30,291,o),
(18,176,cs),
(9,88,o),
(44,-1,o),
(131,-1,cs)
);
}
);
vertWidth = 0;
width = 314;
},
{
layerId = m002;
shapes = (
{
closed = 1;
nodes = (
(207,-4,o),
(263,27,o),
(291,77,cs),
(302,99,o),
(294,126,o),
(272,139,cs),
(246,154,o),
(225,145,o),
(213,122,cs),
(201,100,o),
(177,86,o),
(153,86,cs),
(120,86,o),
(104,125,o),
(110,176,cs),
(117,242,o),
(156,271,o),
(187,271,cs),
(195,271,o),
(197,268,o),
(197,263,cs),
(197,247,o),
(148,204,o),
(63,155,c),
(69,74,l),
(239,185,o),
(289,230,o),
(289,277,cs),
(289,323,o),
(255,360,o),
(194,360,cs),
(115,360,o),
(31,300,o),
(19,185,cs),
(10,97,o),
(47,-4,o),
(145,-4,cs)
);
}
);
vertWidth = 0;
width = 356;
}
);
unicode = 101;
},
{
color = 6;
glyphname = f;
layers = (
{
layerId = m01;
shapes = (
{
closed = 1;
nodes = (
(83,0,o),
(89,15,o),
(90,27,cs),
(142,518,ls),
(148,573,o),
(168,604,o),
(199,604,cs),
(222,604,o),
(240,594,o),
(250,577,cs),
(255,569,o),
(267,564,o),
(280,571,cs),
(292,578,o),
(295,592,o),
(290,600,cs),
(271,630,o),
(241,650,o),
(200,650,cs),
(144,650,o),
(102,609,o),
(93,527,cs),
(40,28,ls),
(39,16,o),
(48,0,o),
(66,0,cs)
);
},
{
closed = 1;
nodes = (
(198,305,ls),
(218,305,o),
(222,316,o),
(222,328,cs),
(222,340,o),
(215,350,o),
(195,350,cs),
(23,350,ls),
(0,350,o),
(-5,340,o),
(-5,328,cs),
(-5,316,o),
(3,305,o),
(23,305,cs)
);
}
);
vertWidth = 0;
width = 231;
},
{
layerId = m002;
shapes = (
{
closed = 1;
nodes = (
(121,-1,o),
(136,25,o),
(138,47,cs),
(185,494,ls),
(190,538,o),
(199,560,o),
(213,560,cs),
(227,560,o),
(236,557,o),
(244,544,cs),
(255,526,o),
(276,514,o),
(300,527,cs),
(321,540,o),
(333,570,o),
(319,593,cs),
(297,627,o),
(261,650,o),
(214,650,cs),
(148,650,o),
(95,597,o),
(86,508,cs),
(38,54,ls),
(35,27,o),
(57,-1,o),
(89,-1,cs)
);
},
{
closed = 1;
nodes = (
(208,260,ls),
(238,260,o),
(256,277,o),
(256,305,cs),
(256,333,o),
(238,350,o),
(208,350,cs),
(43,350,ls),
(11,350,o),
(-8,333,o),
(-8,305,cs),
(-8,277,o),
(11,260,o),
(43,260,cs)
);
}
);
vertWidth = 0;
width = 266;
}
);
unicode = 102;
},
{
color = 6;
glyphname = g;
kernLeft = o_left;
layers = (
{
layerId = m01;
shapes = (
{
closed = 1;
nodes = (
(175,-1,o),
(212,35,o),
(235,82,c),
(249,244,l),
(234,159,o),
(188,45,o),
(132,45,cs),
(80,45,o),
(61,108,o),
(68,173,cs),
(77,258,o),
(118,308,o),
(167,308,cs),
(195,308,o),
(236,296,o),
(255,267,c),
(260,313,l),
(235,341,o),
(198,354,o),
(168,354,cs),
(94,354,o),
(30,291,o),
(18,176,cs),
(9,88,o),
(44,-1,o),
(131,-1,cs)
);
},
{
closed = 1;
nodes = (
(188,-300,o),
(247,-232,o),
(259,-123,cs),
(306,320,ls),
(308,340,o),
(296,350,o),
(284,350,cs),
(271,350,o),
(258,341,o),
(256,323,cs),
(209,-123,ls),
(200,-204,o),
(160,-254,o),
(104,-254,cs),
(76,-254,o),
(48,-243,o),
(31,-226,cs),
(23,-218,o),
(12,-216,o),
(3,-222,cs),
(-12,-232,o),
(-13,-246,o),
(0,-259,cs),
(24,-284,o),
(64,-300,o),
(103,-300,cs)
);
}
);
vertWidth = 0;
width = 352;
},
{
layerId = m002;
shapes = (
{
closed = 1;
nodes = (
(192,-1,o),
(216,75,o),
(239,114,c),
(228,262,l),
(207,130,o),
(178,89,o),
(145,89,cs),
(120,89,o),
(110,119,o),
(116,170,cs),
(123,236,o),
(145,270,o),
(176,270,cs),
(198,270,o),
(230,259,o),
(272,198,c),
(284,303,l),
(259,337,o),
(211,360,o),
(177,360,cs),
(98,360,o),
(31,294,o),
(19,179,cs),
(10,91,o),
(40,-1,o),
(126,-1,cs)
);
},
{
closed = 1;
nodes = (
(205,-300,o),
(275,-240,o),
(288,-120,cs),
(333,292,ls),
(337,326,o),
(312,350,o),
(285,350,cs),
(259,350,o),
(236,331,o),
(233,301,cs),
(188,-114,ls),
(180,-184,o),
(156,-210,o),
(118,-210,cs),
(97,-210,o),
(76,-200,o),
(59,-183,cs),
(48,-172,o),
(31,-158,o),
(5,-175,cs),
(-18,-190,o),
(-25,-222,o),
(-4,-247,cs),
(16,-272,o),
(59,-300,o),
(112,-300,cs)
);
}
);
vertWidth = 0;
width = 382;
}
);
unicode = 103;
},
{
color = 6;
glyphname = h;
kernLeft = h_left;
kernRight = n_right;
layers = (
{
layerId = m01;
shapes = (
{
closed = 1;
nodes = (
(58,0,o),
(70,7,o),
(72,23,cs),
(136,623,ls),
(138,641,o),
(128,650,o),
(115,650,cs),
(102,650,o),
(88,641,o),
(86,623,cs),
(22,23,ls),
(20,8,o),
(32,0,o),
(45,0,cs)
);
},
{
closed = 1;
nodes = (
(265,0,o),
(264,18,o),
(266,31,cs),
(291,234,ls),
(300,308,o),
(270,354,o),
(213,354,cs),
(158,354,o),
(115,305,o),
(77,226,c),
(67,114,l),
(130,252,o),
(168,305,o),
(210,305,cs),
(234,305,o),
(246,278,o),
(241,234,cs),
(217,31,ls),
(215,15,o),
(217,0,o),
(239,0,c)
);
}
);
vertWidth = 0;
width = 346;
},
{
layerId = m002;
shapes = (
{
closed = 1;
nodes = (
(112,0,o),
(120,24,o),
(122,45,cs),
(186,602,ls),
(189,631,o),
(175,650,o),
(143,650,cs),
(112,650,o),
(91,637,o),
(88,608,cs),
(25,52,ls),
(22,24,o),
(34,0,o),
(70,0,cs)
);
},
{
closed = 1;
nodes = (
(303,0,o),
(315,24,o),
(318,46,cs),
(341,229,ls),
(352,310,o),
(317,360,o),
(258,360,cs),
(220,360,o),
(181,334,o),
(141,284,c),
(128,166,l),
(178,247,o),
(218,270,o),
(231,270,cs),
(242,270,o),
(246,258,o),
(244,235,cs),
(222,52,ls),
(219,24,o),
(230,0,o),
(268,0,cs)
);
}
);
vertWidth = 0;
width = 397;
}
);
unicode = 104;
},
{
color = 6;
glyphname = i;
layers = (
{
layerId = m01;
shapes = (
{
closed = 1;
nodes = (
(59,0,o),
(72,10,o),
(74,28,cs),
(105,320,ls),
(107,340,o),
(95,350,o),
(83,350,cs),
(70,350,o),
(57,341,o),
(55,323,cs),
(24,28,ls),
(22,9,o),
(34,0,o),
(47,0,cs)
);
},
{
closed = 1;
nodes = (
(113,428,o),
(130,446,o),
(130,467,cs),
(130,489,o),
(112,505,o),
(92,505,cs),
(71,505,o),
(53,488,o),
(53,467,cs),
(53,445,o),
(72,428,o),
(92,428,cs)
);
}
);
vertWidth = 0;
width = 161;
},
{
layerId = m002;
shapes = (
{
closed = 1;
nodes = (
(97,0,o),
(120,15,o),
(123,43,cs),
(150,299,ls),
(153,332,o),
(130,350,o),
(104,350,cs),
(79,350,o),
(55,337,o),
(52,308,cs),
(25,48,ls),
(22,16,o),
(45,0,o),
(72,0,cs)
);
},
{
closed = 1;
nodes = (
(151,427,o),
(174,456,o),
(174,483,cs),
(174,509,o),
(151,537,o),
(119,537,cs),
(89,537,o),
(64,511,o),
(64,482,cs),
(64,452,o),
(89,427,o),
(119,427,cs)
);
}
);
vertWidth = 0;
width = 209;
}
);
unicode = 105;
},
{
color = 6;
glyphname = j;
layers = (
{
layerId = m01;
shapes = (
{
closed = 1;
nodes = (
(-13,-299,o),
(47,-231,o),
(58,-122,cs),
(105,320,ls),
(107,340,o),
(95,350,o),
(83,350,cs),
(70,350,o),
(57,341,o),
(55,323,cs),
(8,-122,ls),
(-1,-203,o),
(-41,-253,o),
(-97,-253,cs),
(-125,-253,o),
(-153,-242,o),
(-170,-225,cs),
(-178,-217,o),
(-189,-215,o),
(-198,-221,cs),
(-213,-231,o),
(-214,-245,o),
(-201,-258,cs),
(-177,-283,o),
(-137,-299,o),
(-98,-299,cs)
);
},
{
closed = 1;
nodes = (
(113,428,o),
(130,446,o),
(130,467,cs),
(130,489,o),
(112,505,o),
(92,505,cs),
(71,505,o),
(53,488,o),
(53,467,cs),
(53,445,o),
(72,428,o),
(92,428,cs)
);
}
);
vertWidth = 0;
width = 161;
},
{
layerId = m002;
shapes = (
{
closed = 1;
nodes = (
(24,-300,o),
(92,-240,o),
(105,-120,c),
(150,299,ls),
(154,332,o),
(130,350,o),
(104,350,cs),
(79,350,o),
(55,337,o),
(52,308,cs),
(7,-114,l),
(0,-184,o),
(-25,-210,o),
(-63,-210,cs),
(-84,-210,o),
(-105,-200,o),
(-122,-183,cs),
(-133,-172,o),
(-150,-158,o),
(-176,-175,cs),
(-199,-190,o),
(-206,-222,o),
(-185,-247,cs),
(-165,-272,o),
(-122,-300,o),
(-69,-300,cs)
);
},
{
closed = 1;
nodes = (
(151,427,o),
(174,456,o),
(174,483,cs),
(174,509,o),
(151,537,o),
(119,537,cs),
(89,537,o),
(64,511,o),
(64,482,cs),
(64,452,o),
(89,427,o),
(119,427,cs)
);
}
);
vertWidth = 0;
width = 209;
}
);
unicode = 106;
},
{
color = 6;
glyphname = k;
kernLeft = h_left;
layers = (
{
layerId = m01;
shapes = (
{
closed = 1;
nodes = (
(61,0,o),
(71,7,o),
(73,26,cs),
(137,621,ls),
(139,642,o),
(128,650,o),
(112,650,cs),
(97,650,o),
(89,639,o),
(87,622,cs),
(23,26,ls),
(21,10,o),
(32,0,o),
(45,0,cs)
);
},
{
closed = 1;
nodes = (
(263,0,o),
(273,7,o),
(275,18,cs),
(276,25,o),
(276,34,o),
(267,43,cs),
(106,217,l),
(68,184,l),
(222,19,ls),
(231,9,o),
(240,0,o),
(253,0,cs)
);
},
{
closed = 1;
nodes = (
(263,304,ls),
(275,313,o),
(280,322,o),
(281,331,cs),
(281,343,o),
(273,350,o),
(260,350,cs),
(251,351,o),
(241,346,o),
(229,337,cs),
(65,214,l),
(60,153,l)
);
}
);
vertWidth = 0;
width = 343;
},
{
layerId = m002;
shapes = (
{
closed = 1;
nodes = (
(101,0,o),
(122,18,o),
(126,51,cs),
(185,597,ls),
(188,625,o),
(173,650,o),
(138,650,cs),
(108,650,o),
(88,629,o),
(85,602,cs),
(26,57,ls),
(22,21,o),
(39,0,o),
(72,0,cs)
);
},
{
closed = 1;
nodes = (
(284,0,o),
(304,14,o),
(309,37,cs),
(311,51,o),
(311,65,o),
(297,83,cs),
(193,215,l),
(117,154,l),
(214,27,ls),
(230,6,o),
(243,0,o),
(262,0,cs)
);
},
{
closed = 1;
nodes = (
(298,259,ls),
(315,271,o),
(321,289,o),
(322,303,cs),
(323,325,o),
(307,349,o),
(278,350,cs),
(263,351,o),
(249,345,o),
(231,332,cs),
(114,248,l),
(106,123,l)
);
}
);
vertWidth = 0;
width = 375;
}
);
unicode = 107;
},
{
color = 6;
glyphname = l;
kernLeft = h_left;
layers = (
{
layerId = m01;
shapes = (
{
closed = 1;
nodes = (
(61,0,o),
(71,7,o),
(73,26,cs),
(137,621,ls),
(139,642,o),
(128,650,o),
(112,650,cs),
(97,650,o),
(89,639,o),
(87,622,cs),
(23,26,ls),
(21,10,o),
(32,0,o),
(45,0,cs)
);
}
);
vertWidth = 0;
width = 162;
},
{
layerId = m002;
shapes = (
{
closed = 1;
nodes = (
(101,0,o),
(122,18,o),
(126,51,cs),
(185,597,ls),
(188,625,o),
(173,650,o),
(138,650,cs),
(108,650,o),
(88,629,o),
(85,602,cs),
(26,57,ls),
(22,21,o),
(39,0,o),
(72,0,cs)
);
}
);
vertWidth = 0;
width = 212;
}
);
unicode = 108;
},
{
color = 6;
glyphname = m;
kernLeft = n_left;
kernRight = n_right;
layers = (
{
layerId = m01;
shapes = (
{
closed = 1;
nodes = (
(62,0,o),
(60,18,o),
(62,31,cs),
(96,323,ls),
(98,340,o),
(95,350,o),
(78,350,cs),
(58,350,o),
(48,341,o),
(46,323,cs),
(13,31,ls),
(11,15,o),
(14,0,o),
(36,0,cs)
);
},
{
closed = 1;
nodes = (
(246,0,o),
(245,18,o),
(247,31,cs),
(272,234,ls),
(281,308,o),
(251,354,o),
(194,354,cs),
(139,354,o),
(106,305,o),
(68,226,c),
(58,114,l),
(121,252,o),
(149,305,o),
(191,305,cs),
(215,305,o),
(227,278,o),
(222,234,cs),
(198,31,ls),
(196,15,o),
(198,0,o),
(220,0,c)
);
},
{
closed = 1;
nodes = (
(432,0,o),
(431,18,o),
(433,31,cs),
(458,234,ls),
(467,308,o),
(437,354,o),
(380,354,cs),
(325,354,o),
(292,305,o),
(254,226,c),
(244,114,l),
(307,252,o),
(335,305,o),
(377,305,cs),
(401,305,o),
(413,278,o),
(408,234,cs),
(384,31,ls),
(382,15,o),
(384,0,o),
(406,0,c)
);
}
);
vertWidth = 0;
width = 513;
},
{
layerId = m002;
shapes = (
{
closed = 1;
nodes = (
(102,0,o),
(110,24,o),
(112,45,cs),
(142,302,ls),
(145,331,o),
(131,350,o),
(99,350,cs),
(68,350,o),
(47,337,o),
(44,308,cs),
(15,52,ls),
(12,24,o),
(24,0,o),
(60,0,cs)
);
},
{
closed = 1;
nodes = (
(288,0,o),
(300,24,o),
(303,46,cs),
(326,229,ls),
(336,310,o),
(302,360,o),
(243,360,cs),
(205,360,o),
(171,334,o),
(131,284,c),
(118,166,l),
(168,247,o),
(203,270,o),
(216,270,cs),
(227,270,o),
(232,258,o),
(229,235,cs),
(207,52,ls),
(204,24,o),
(215,0,o),
(253,0,cs)
);
},
{
closed = 1;
nodes = (
(481,0,o),
(493,24,o),
(496,46,cs),
(519,229,ls),
(529,310,o),
(495,360,o),
(436,360,cs),
(398,360,o),
(364,334,o),
(324,284,c),
(311,166,l),
(361,247,o),
(396,270,o),
(409,270,cs),
(420,270,o),
(425,258,o),
(422,235,cs),
(400,52,ls),
(397,24,o),
(408,0,o),
(446,0,cs)
);
}
);
vertWidth = 0;
width = 575;
}
);
unicode = 109;
},
{
color = 6;
glyphname = n;
kernLeft = n_left;
kernRight = n_right;
layers = (
{
layerId = m01;
shapes = (
{
closed = 1;
nodes = (
(62,0,o),
(60,18,o),
(62,31,cs),
(96,323,ls),
(98,340,o),
(95,350,o),
(78,350,cs),
(58,350,o),
(48,341,o),
(46,323,cs),
(13,31,ls),
(11,15,o),
(14,0,o),
(36,0,cs)
);
},
{
closed = 1;
nodes = (
(256,0,o),
(255,18,o),
(257,31,cs),
(282,234,ls),
(291,308,o),
(261,354,o),
(204,354,cs),
(149,354,o),
(106,305,o),
(68,226,c),
(58,114,l),
(121,252,o),
(159,305,o),
(201,305,cs),
(225,305,o),
(237,278,o),
(232,234,cs),
(208,31,ls),
(206,15,o),
(208,0,o),
(230,0,c)
);
}
);
vertWidth = 0;
width = 337;
},
{
layerId = m002;
shapes = (
{
closed = 1;
nodes = (
(102,0,o),
(110,24,o),
(112,45,cs),
(142,302,ls),
(145,331,o),
(131,350,o),
(99,350,cs),
(68,350,o),
(47,337,o),
(44,308,cs),
(15,52,ls),
(12,24,o),
(24,0,o),
(60,0,cs)
);
},
{
closed = 1;
nodes = (
(293,0,o),
(305,24,o),
(308,46,cs),
(331,229,ls),
(342,310,o),
(307,360,o),
(248,360,cs),
(210,360,o),
(171,334,o),
(131,284,c),
(118,166,l),
(168,247,o),
(208,270,o),
(221,270,cs),
(232,270,o),
(236,258,o),
(234,235,cs),
(212,52,ls),
(209,24,o),
(220,0,o),
(258,0,cs)
);
}
);
vertWidth = 0;
width = 387;
}
);
unicode = 110;
},
{
color = 6;
glyphname = o;
kernLeft = o_left;
kernRight = o_right;
layers = (
{
layerId = m01;
shapes = (
{
closed = 1;
nodes = (
(224,-1,o),
(272,91,o),
(281,176,cs),
(290,264,o),
(255,354,o),
(168,354,cs),
(94,354,o),
(30,291,o),
(18,176,cs),
(9,88,o),
(44,-1,o),
(131,-1,cs)
);
},
{
closed = 1;
nodes = (
(80,45,o),
(61,108,o),
(68,173,cs),
(77,258,o),
(118,308,o),
(167,308,cs),
(227,308,o),
(236,224,o),
(231,178,cs),
(222,96,o),
(177,45,o),
(136,45,cs)
);
}
);
vertWidth = 0;
width = 333;
},
{
layerId = m002;
shapes = (
{
closed = 1;
nodes = (
(239,-1,o),
(301,68,o),
(313,180,cs),
(324,291,o),
(275,360,o),
(182,360,cs),
(93,360,o),
(31,291,o),
(19,179,cs),
(8,68,o),
(57,-1,o),
(147,-1,cs)
);
},
{
closed = 1;
nodes = (
(123,89,o),
(110,120,o),
(117,170,cs),
(124,232,o),
(148,270,o),
(181,270,cs),
(209,270,o),
(222,239,o),
(215,189,cs),
(208,127,o),
(184,89,o),
(151,89,cs)
);
}
);
vertWidth = 0;
width = 364;
}
);
unicode = 111;
},
{
color = 6;
glyphname = p;
kernLeft = n_left;
kernRight = o_right;
layers = (
{
layerId = m01;
shapes = (
{
closed = 1;
nodes = (
(17,-300,o),
(30,-291,o),
(32,-273,cs),
(94,322,ls),
(96,341,o),
(84,350,o),
(71,350,cs),
(59,350,o),
(46,340,o),
(44,322,cs),
(-18,-270,ls),
(-20,-290,o),
(-8,-300,o),
(4,-300,cs)
);
},
{
closed = 1;
nodes = (
(225,-1,o),
(289,59,o),
(301,174,cs),
(310,262,o),
(275,354,o),
(188,354,cs),
(144,354,o),
(107,315,o),
(84,268,c),
(70,106,l),
(86,190,o),
(131,308,o),
(187,308,cs),
(239,308,o),
(258,242,o),
(251,177,cs),
(242,92,o),
(201,45,o),
(152,45,cs),
(124,45,o),
(83,59,o),
(64,88,c),
(59,37,l),
(84,9,o),
(121,-1,o),
(151,-1,cs)
);
}
);
vertWidth = 0;
width = 353;
},
{
layerId = m002;
shapes = (
{
closed = 1;
nodes = (
(61,-300,o),
(81,-279,o),
(84,-252,cs),
(143,293,ls),
(147,329,o),
(130,350,o),
(97,350,cs),
(68,350,o),
(46,326,o),
(42,293,cs),
(-16,-247,ls),
(-19,-275,o),
(-4,-300,o),
(31,-300,cs)
);
},
{
closed = 1;
nodes = (
(252,-1,o),
(319,65,o),
(331,180,cs),
(340,268,o),
(310,360,o),
(224,360,cs),
(158,360,o),
(134,284,o),
(111,245,c),
(122,97,l),
(143,229,o),
(172,270,o),
(205,270,cs),
(230,270,o),
(240,240,o),
(234,189,cs),
(227,123,o),
(205,89,o),
(174,89,cs),
(152,89,o),
(120,100,o),
(78,161,c),
(66,56,l),
(91,22,o),
(139,-1,o),
(173,-1,cs)
);
}
);
vertWidth = 0;
width = 382;
}
);
unicode = 112;
},
{
color = 6;
glyphname = q;
kernLeft = o_left;
layers = (
{
layerId = m01;
shapes = (
{
closed = 1;
nodes = (
(175,-1,o),
(212,35,o),
(235,82,c),
(249,244,l),
(234,159,o),
(188,45,o),
(132,45,cs),
(80,45,o),
(61,108,o),
(68,173,cs),
(77,258,o),
(118,308,o),
(167,308,cs),
(195,308,o),
(236,296,o),
(255,267,c),
(260,313,l),
(235,341,o),
(198,354,o),
(168,354,cs),
(94,354,o),
(30,291,o),
(18,176,cs),
(9,88,o),
(44,-1,o),
(131,-1,cs)
);
},
{
closed = 1;
nodes = (
(222,-300,o),
(228,-297,o),
(234,-292,cs),
(322,-219,ls),
(334,-209,o),
(341,-197,o),
(341,-188,cs),
(341,-176,o),
(332,-168,o),
(319,-168,cs),
(311,-168,o),
(302,-171,o),
(290,-181,cs),
(249,-215,l),
(306,320,ls),
(308,340,o),
(296,350,o),
(284,350,cs),
(271,350,o),
(258,341,o),
(256,323,cs),
(193,-272,ls),
(191,-291,o),
(203,-300,o),
(216,-300,cs)
);
}
);
vertWidth = 0;
width = 352;
},
{
layerId = m002;
shapes = (
{
closed = 1;
nodes = (
(192,-1,o),
(216,75,o),
(239,114,c),
(228,262,l),
(207,130,o),
(178,89,o),
(145,89,cs),
(120,89,o),
(110,119,o),
(116,170,cs),
(123,236,o),
(145,270,o),
(176,270,cs),
(198,270,o),
(230,259,o),
(272,198,c),
(284,303,l),
(259,337,o),
(211,360,o),
(177,360,cs),
(98,360,o),
(31,294,o),
(19,179,cs),
(10,91,o),
(40,-1,o),
(126,-1,cs)
);
},
{
closed = 1;
nodes = (
(235,-300,o),
(247,-295,o),
(256,-288,cs),
(350,-209,ls),
(365,-197,o),
(376,-183,o),
(378,-170,cs),
(382,-145,o),
(362,-126,o),
(337,-125,cs),
(324,-124,o),
(308,-129,o),
(292,-142,cs),
(285,-148,l),
(333,293,ls),
(337,329,o),
(320,350,o),
(287,350,cs),
(258,350,o),
(236,326,o),
(232,293,cs),
(174,-247,ls),
(171,-275,o),
(186,-300,o),
(221,-300,cs)
);
}
);
vertWidth = 0;
width = 382;
}
);
unicode = 113;
},
{
color = 6;
glyphname = r;
kernLeft = n_left;
layers = (
{
layerId = m01;
shapes = (
{
closed = 1;
nodes = (
(49,0,o),
(61,9,o),
(63,27,cs),
(94,320,ls),
(96,340,o),
(85,350,o),
(72,350,cs),
(60,350,o),
(46,341,o),
(44,323,cs),
(13,27,ls),
(11,9,o),
(23,0,o),
(36,0,cs)
);
},
{
closed = 1;
nodes = (
(272,258,o),
(280,268,o),
(276,287,cs),
(267,324,o),
(242,354,o),
(202,354,cs),
(147,354,o),
(107,310,o),
(66,224,c),
(56,114,l),
(118,251,o),
(157,305,o),
(199,305,cs),
(216,305,o),
(224,284,o),
(229,262,cs),
(231,251,o),
(249,247,o),
(261,253,cs)
);
}
);
vertWidth = 0;
width = 298;
},
{
layerId = m002;
shapes = (
{
closed = 1;
nodes = (
(102,0,o),
(110,24,o),
(112,45,cs),
(142,302,ls),
(145,331,o),
(131,350,o),
(99,350,cs),
(68,350,o),
(47,337,o),
(44,308,cs),
(15,52,ls),
(12,24,o),
(24,0,o),
(60,0,cs)
);
},
{
closed = 1;
nodes = (
(319,234,o),
(327,253,o),
(321,285,cs),
(311,326,o),
(285,360,o),
(234,360,cs),
(170,360,o),
(133,297,o),
(95,202,c),
(85,71,l),
(159,224,o),
(198,274,o),
(218,274,cs),
(226,274,o),
(231,270,o),
(234,258,cs),
(242,226,o),
(269,217,o),
(296,226,cs)
);
}
);
vertWidth = 0;
width = 345;
}
);
unicode = 114;
},
{
color = 6;
glyphname = s;
layers = (
{
layerId = m01;
shapes = (
{
closed = 1;
nodes = (
(198,-1,o),
(237,35,o),
(237,93,cs),
(237,141,o),
(218,162,o),
(127,216,cs),
(96,234,o),
(82,245,o),
(82,267,cs),
(82,289,o),
(100,304,o),
(133,304,cs),
(168,304,o),
(195,291,o),
(212,279,cs),
(228,268,o),
(243,265,o),
(252,279,cs),
(261,292,o),
(251,313,o),
(232,325,cs),
(199,346,o),
(167,354,o),
(140,354,cs),
(73,354,o),
(32,319,o),
(32,268,cs),
(32,226,o),
(54,201,o),
(95,177,cs),
(172,131,o),
(187,116,o),
(187,91,cs),
(187,65,o),
(169,49,o),
(138,49,cs),
(100,49,o),
(69,67,o),
(49,84,cs),
(35,96,o),
(24,96,o),
(12,82,cs),
(1,69,o),
(9,53,o),
(25,39,cs),
(51,15,o),
(88,-1,o),
(136,-1,cs)
);
}
);
vertWidth = 0;
width = 298;
},
{
layerId = m002;
shapes = (
{
closed = 1;
nodes = (
(200,-1,o),
(264,26,o),
(264,103,cs),
(264,160,o),
(227,189,o),
(181,215,cs),
(153,231,o),
(125,246,o),
(125,257,cs),
(125,265,o),
(134,270,o),
(148,270,cs),
(165,270,o),
(186,265,o),
(202,254,cs),
(232,233,o),
(259,235,o),
(274,257,cs),
(291,281,o),
(280,310,o),
(246,333,cs),
(213,354,o),
(179,360,o),
(152,360,cs),
(77,360,o),
(31,321,o),
(31,258,cs),
(31,213,o),
(53,180,o),
(124,139,cs),
(167,114,o),
(168,108,o),
(168,101,cs),
(168,93,o),
(160,89,o),
(150,89,cs),
(125,89,o),
(96,104,o),
(85,113,cs),
(61,132,o),
(35,131,o),
(17,105,cs),
(-2,78,o),
(13,52,o),
(39,33,cs),
(58,19,o),
(103,-1,o),
(148,-1,cs)
);
}
);
vertWidth = 0;
width = 324;
}
);
unicode = 115;
},
{
color = 6;
glyphname = t;
layers = (
{
guides = (
{
name = " [#PIEUew2GI2]";
pos = (326,568);
}
);
layerId = m01;
shapes = (
{
closed = 1;
nodes = (
(109,0,o),
(119,7,o),
(121,23,cs),
(177,541,ls),
(179,559,o),
(166,568,o),
(152,568,cs),
(141,568,o),
(129,561,o),
(127,547,cs),
(71,24,ls),
(69,8,o),
(83,0,o),
(96,0,cs)
);
},
{
closed = 1;
nodes = (
(238,305,ls),
(258,305,o),
(262,316,o),
(262,328,cs),
(262,340,o),
(255,350,o),
(235,350,cs),
(32,350,ls),
(12,350,o),
(7,340,o),
(7,328,cs),
(7,316,o),
(15,305,o),
(35,305,cs)
);
}
);
vertWidth = 0;
width = 280;
},
{
guides = (
{
name = " [#20o9Kbz8wt]";
pos = (309,568);
}
);
layerId = m002;
shapes = (
{
closed = 1;
nodes = (
(145,0,o),
(167,15,o),
(170,45,cs),
(221,513,ls),
(225,546,o),
(200,568,o),
(171,568,cs),
(148,568,o),
(123,553,o),
(120,525,cs),
(69,51,ls),
(66,20,o),
(91,0,o),
(119,0,cs)
);
},
{
closed = 1;
nodes = (
(240,260,ls),
(270,260,o),
(288,277,o),
(288,305,cs),
(288,333,o),
(270,350,o),
(240,350,cs),
(55,350,ls),
(23,350,o),
(4,333,o),
(4,305,cs),
(4,277,o),
(23,260,o),
(55,260,cs)
);
}
);
vertWidth = 0;
width = 308;
}
);
unicode = 116;
},
{
color = 6;
glyphname = u;
kernLeft = n_left;
kernRight = n_right;
layers = (
{
layerId = m01;
shapes = (
{
closed = 1;
nodes = (
(155,-1,o),
(197,49,o),
(239,120,c),
(248,230,l),
(186,93,o),
(145,48,o),
(103,48,cs),
(78,48,o),
(68,76,o),
(72,116,cs),
(94,321,ls),
(96,335,o),
(94,350,o),
(72,350,cs),
(50,350,o),
(47,334,o),
(46,323,cs),
(22,116,ls),
(14,51,o),
(42,-1,o),
(100,-1,cs)
);
},
{
closed = 1;
nodes = (
(248,0,o),
(257,9,o),
(259,27,cs),
(290,321,ls),
(292,335,o),
(289,350,o),
(268,350,cs),
(247,350,o),
(242,334,o),
(241,323,cs),
(209,27,ls),
(207,10,o),
(211,0,o),
(228,0,cs)
);
}
);
vertWidth = 0;
width = 336;
},
{
layerId = m002;
shapes = (
{
closed = 1;
nodes = (
(144,-1,o),
(183,16,o),
(223,66,c),
(236,184,l),
(186,103,o),
(146,89,o),
(133,89,cs),
(122,89,o),
(118,92,o),
(120,115,cs),
(142,298,ls),
(145,326,o),
(134,350,o),
(96,350,cs),
(61,350,o),
(49,326,o),
(46,304,cs),
(23,121,ls),
(12,40,o),
(47,-1,o),
(106,-1,cs)
);
},
{
closed = 1;
nodes = (
(286,0,o),
(307,13,o),
(310,42,cs),
(339,298,ls),
(342,326,o),
(330,350,o),
(294,350,cs),
(252,350,o),
(244,326,o),
(242,305,cs),
(212,48,ls),
(209,19,o),
(223,0,o),
(255,0,cs)
);
}
);
vertWidth = 0;
width = 388;
}
);
unicode = 117;
},
{
color = 6;
glyphname = v;
kernLeft = v_left;
kernRight = v_right;
layers = (
{
layerId = m01;
shapes = (
{
closed = 1;
nodes = (
(76,5,o),
(86,0,o),
(98,0,cs),
(110,0,o),
(119,3,o),
(126,19,cs),
(260,309,ls),
(271,334,o),
(259,350,o),
(241,350,cs),
(231,350,o),
(221,345,o),
(213,328,cs),
(100,73,l),
(109,71,l),
(62,328,ls),
(59,343,o),
(49,350,o),
(39,350,cs),
(21,350,o),
(10,335,o),
(15,308,cs),
(73,21,ls)
);
}
);
vertWidth = 0;
width = 280;
},
{
layerId = m002;
shapes = (
{
closed = 1;
nodes = (
(81,11,o),
(101,-1,o),
(122,-1,cs),
(138,-1,o),
(159,7,o),
(171,31,cs),
(297,276,ls),
(316,313,o),
(292,350,o),
(258,350,cs),
(238,350,o),
(218,341,o),
(210,323,cs),
(123,126,l),
(142,120,l),
(107,313,ls),
(103,334,o),
(83,349,o),
(61,349,cs),
(28,349,o),
(4,320,o),
(14,280,cs),
(74,38,ls)
);
}
);
vertWidth = 0;
width = 322;
}
);
unicode = 118;
},
{
color = 6;
glyphname = w;
kernLeft = v_left;
kernRight = v_right;
layers = (
{
layerId = m01;
shapes = (
{
closed = 1;
nodes = (
(76,5,o),
(87,0,o),
(98,0,cs),
(110,0,o),
(119,3,o),
(126,19,cs),
(239,271,l),
(228,273,l),
(275,21,ls),
(278,5,o),
(289,0,o),
(300,0,cs),
(312,0,o),
(321,3,o),
(328,19,cs),
(462,309,ls),
(473,334,o),
(461,348,o),
(443,350,cs),
(433,351,o),
(423,345,o),
(419,336,cs),
(304,73,l),
(312,71,l),
(263,333,ls),
(261,343,o),
(251,350,o),
(241,350,cs),
(231,350,o),
(221,345,o),
(217,336,cs),
(101,73,l),
(109,71,l),
(61,333,ls),
(59,343,o),
(49,350,o),
(39,350,cs),
(21,350,o),
(10,335,o),
(15,308,cs),
(73,21,ls)
);
}
);
vertWidth = 0;
width = 482;
},
{
layerId = m002;
shapes = (
{
closed = 1;
nodes = (
(80,14,o),
(99,-1,o),
(120,-1,cs),
(145,-1,o),
(165,12,o),
(172,32,cs),
(227,195,l),
(218,197,l),
(241,38,ls),
(244,14,o),
(264,-1,o),
(288,-1,cs),
(309,-1,o),
(328,11,o),
(338,31,cs),
(456,276,ls),
(474,314,o),
(451,350,o),
(416,350,cs),
(397,350,o),
(376,341,o),
(369,323,cs),
(295,138,l),
(304,136,l),
(283,314,ls),
(280,337,o),
(260,350,o),
(237,350,cs),
(219,350,o),
(198,339,o),
(192,322,cs),
(130,139,l),
(139,137,l),
(106,314,ls),
(102,335,o),
(83,350,o),
(61,350,cs),
(28,350,o),
(4,321,o),
(14,281,cs),
(74,39,ls)
);
}
);
vertWidth = 0;
width = 480;
}
);
unicode = 119;
},
{
color = 6;
glyphname = x;
layers = (
{
layerId = m01;
shapes = (
{
closed = 1;
nodes = (
(35,0,o),
(42,6,o),
(51,18,cs),
(153,153,l),
(160,158,l),
(270,304,ls),
(286,325,o),
(282,350,o),
(255,350,cs),
(248,350,o),
(240,347,o),
(233,338,cs),
(132,203,l),
(125,198,l),
(14,49,ls),
(-5,24,o),
(1,0,o),
(23,0,cs)
);
},
{
closed = 1;
nodes = (
(244,0,o),
(252,21,o),
(237,49,cs),
(158,195,l),
(84,333,ls),
(78,343,o),
(69,350,o),
(59,350,cs),
(43,350,o),
(27,334,o),
(40,309,cs),
(123,155,l),
(196,21,ls),
(205,5,o),
(212,0,o),
(222,0,cs)
);
}
);
vertWidth = 0;
width = 315;
},
{
layerId = m002;
shapes = (
{
closed = 1;
nodes = (
(68,-1,o),
(83,6,o),
(98,26,cs),
(187,140,l),
(199,144,l),
(294,267,ls),
(326,309,o),
(302,350,o),
(260,350,cs),
(246,350,o),
(230,345,o),
(219,330,cs),
(130,215,l),
(118,210,l),
(21,85,ls),
(-17,36,o),
(21,-1,o),
(52,-1,cs)
);
},
{
closed = 1;
nodes = (
(270,-1,o),
(288,39,o),
(264,82,cs),
(195,206,l),
(130,322,ls),
(120,341,o),
(104,350,o),
(86,350,cs),
(42,350,o),
(24,309,o),
(43,274,cs),
(115,145,l),
(179,32,ls),
(191,10,o),
(208,-1,o),
(225,-1,cs)
);
}
);
vertWidth = 0;
width = 346;
}
);
unicode = 120;
},
{
color = 6;
glyphname = y;
kernLeft = n_left;
kernRight = n_right;
layers = (
{
layerId = m01;
shapes = (
{
closed = 1;
nodes = (
(154,-1,o),
(194,46,o),
(236,117,c),
(245,236,l),
(183,99,o),
(144,48,o),
(102,48,cs),
(77,48,o),
(67,80,o),
(71,116,cs),
(93,321,ls),
(95,335,o),
(91,351,o),
(71,350,cs),
(51,349,o),
(45,332,o),
(44,321,cs),
(21,116,ls),
(14,51,o),
(41,-1,o),
(99,-1,cs)
);
},
{
closed = 1;
nodes = (
(290,320,ls),
(292,340,o),
(280,350,o),
(268,350,cs),
(255,350,o),
(242,341,o),
(240,323,cs),
(193,-123,ls),
(184,-204,o),
(144,-254,o),
(88,-254,cs),
(60,-254,o),
(32,-243,o),
(15,-226,cs),
(7,-218,o),
(-4,-216,o),
(-13,-222,cs),
(-28,-232,o),
(-29,-246,o),
(-16,-259,cs),
(8,-284,o),
(48,-300,o),
(87,-300,cs),
(172,-300,o),
(231,-232,o),
(243,-123,cs)
);
}
);
vertWidth = 0;
width = 336;
},
{
layerId = m002;
shapes = (
{
closed = 1;
nodes = (
(144,-1,o),
(183,16,o),
(223,66,c),
(236,184,l),
(186,103,o),
(146,89,o),
(133,89,cs),
(122,89,o),
(118,92,o),
(120,115,cs),
(142,298,ls),
(145,326,o),
(134,350,o),
(96,350,cs),
(61,350,o),
(49,326,o),
(46,304,cs),
(23,121,ls),
(12,40,o),
(47,-1,o),
(106,-1,cs)
);
},
{
closed = 1;
nodes = (
(340,299,ls),
(344,332,o),
(320,350,o),
(294,350,cs),
(269,350,o),
(245,337,o),
(242,308,cs),
(197,-114,l),
(190,-184,o),
(165,-210,o),
(127,-210,cs),
(106,-210,o),
(85,-200,o),
(68,-183,cs),
(57,-172,o),
(40,-158,o),
(14,-175,cs),
(-9,-190,o),
(-16,-222,o),
(5,-247,cs),
(25,-272,o),
(68,-300,o),
(121,-300,cs),
(214,-300,o),
(282,-240,o),
(295,-120,c)
);
}
);
vertWidth = 0;
width = 389;
}
);
unicode = 121;
},
{
color = 6;
glyphname = z;
layers = (
{
layerId = m01;
shapes = (
{
closed = 1;
nodes = (
(235,0,ls),
(255,0,o),
(259,13,o),
(259,25,cs),
(259,37,o),
(252,50,o),
(232,50,cs),
(53,50,l),
(65,26,l),
(283,309,ls),
(298,329,o),
(284,350,o),
(264,350,cs),
(69,350,ls),
(49,350,o),
(44,337,o),
(44,325,cs),
(44,313,o),
(52,300,o),
(72,300,cs),
(246,300,l),
(234,324,l),
(19,44,ls),
(5,26,o),
(19,0,o),
(38,0,cs)
);
}
);
vertWidth = 0;
width = 327;
},
{
layerId = m002;
shapes = (
{
closed = 1;
nodes = (
(226,0,ls),
(258,0,o),
(274,16,o),
(274,44,cs),
(274,65,o),
(259,90,o),
(224,90,cs),
(116,90,l),
(128,66,l),
(290,276,ls),
(318,311,o),
(291,350,o),
(250,350,cs),
(81,350,ls),
(44,350,o),
(32,328,o),
(32,306,cs),
(32,285,o),
(48,260,o),
(84,260,cs),
(187,260,l),
(175,284,l),
(16,77,ls),
(-11,43,o),
(16,0,o),
(59,0,cs)
);
}
);
vertWidth = 0;
width = 350;
}
);
unicode = 122;
},
{
color = 6;
glyphname = zero;
layers = (
{
layerId = m01;
shapes = (
{
closed = 1;
nodes = (
(330,-1,o),
(401,122,o),
(419,300,cs),
(430,408,o),
(405,567,o),
(254,567,cs),
(109,567,o),
(54,430,o),
(36,252,cs),
(22,117,o),
(76,-1,o),
(202,-1,cs)
);
},
{
closed = 1;
nodes = (
(124,45,o),
(73,115,o),
(86,245,cs),
(97,352,o),
(120,521,o),
(254,521,cs),
(367,521,o),
(379,392,o),
(368,290,cs),
(355,167,o),
(307,45,o),
(203,45,cs)
);
}
);
vertWidth = 0;
width = 467;
},
{
layerId = m002;
shapes = (
{
closed = 1;
nodes = (
(347,-1,o),
(438,109,o),
(459,288,cs),
(479,461,o),
(410,568,o),
(277,568,cs),
(151,568,o),
(60,456,o),
(39,275,cs),
(19,104,o),
(89,-1,o),
(221,-1,cs)
);
},
{
closed = 1;
nodes = (
(163,89,o),
(128,158,o),
(140,271,cs),
(154,398,o),
(203,478,o),
(268,478,cs),
(336,478,o),
(370,407,o),
(358,292,cs),
(344,167,o),
(295,89,o),
(230,89,cs)
);
}
);
vertWidth = 0;
width = 509;
}
);
unicode = 48;
},
{
color = 6;
glyphname = one;
layers = (
{
layerId = m01;
shapes = (
{
closed = 1;
nodes = (
(69,0,o),
(81,6,o),
(83,23,cs),
(139,543,ls),
(141,560,o),
(129,568,o),
(116,568,cs),
(103,568,o),
(90,561,o),
(88,543,cs),
(33,28,ls),
(31,9,o),
(44,0,o),
(57,0,cs)
);
}
);
vertWidth = 0;
width = 182;
},
{
layerId = m002;
shapes = (
{
closed = 1;
nodes = (
(112,0,o),
(134,18,o),
(137,51,cs),
(185,515,ls),
(188,543,o),
(173,568,o),
(138,568,cs),
(108,568,o),
(88,547,o),
(85,520,cs),
(37,57,ls),
(33,21,o),
(50,0,o),
(83,0,cs)
);
}
);
vertWidth = 0;
width = 232;
}
);
unicode = 49;
},
{
color = 6;
glyphname = two;
layers = (
{
layerId = m01;
shapes = (
{
closed = 1;
nodes = (
(332,37,o),
(325,50,o),
(305,50,cs),
(65,50,l),
(71,26,l),
(141,115,o),
(269,263,o),
(303,306,cs),
(353,369,o),
(378,421,o),
(378,463,cs),
(378,522,o),
(324,568,o),
(251,568,cs),
(188,568,o),
(118,539,o),
(76,503,cs),
(54,484,o),
(58,471,o),
(67,461,cs),
(75,452,o),
(91,449,o),
(115,469,cs),
(149,498,o),
(207,518,o),
(254,518,cs),
(297,518,o),
(328,500,o),
(328,468,cs),
(328,429,o),
(294,374,o),
(261,332,cs),
(237,301,o),
(91,128,o),
(18,35,cs),
(7,21,o),
(18,0,o),
(36,0,cs),
(308,0,ls),
(328,0,o),
(332,13,o),
(332,25,cs)
);
}
);
vertWidth = 0;
width = 415;
},
{
layerId = m002;
shapes = (
{
closed = 1;
nodes = (
(364,71,o),
(344,86,o),
(311,86,cs),
(137,86,l),
(148,63,l),
(217,149,o),
(289,232,o),
(315,265,cs),
(379,345,o),
(410,403,o),
(410,450,cs),
(410,523,o),
(356,568,o),
(268,568,cs),
(202,568,o),
(119,540,o),
(79,503,cs),
(52,478,o),
(56,456,o),
(70,437,cs),
(83,420,o),
(117,412,o),
(146,438,cs),
(177,466,o),
(224,481,o),
(261,481,cs),
(291,481,o),
(310,470,o),
(310,452,cs),
(310,426,o),
(284,384,o),
(252,343,cs),
(228,313,o),
(138,207,o),
(37,80,cs),
(6,41,o),
(22,0,o),
(61,0,cs),
(317,0,ls),
(346,0,o),
(364,18,o),
(364,44,cs)
);
}
);
vertWidth = 0;
width = 443;
}
);
unicode = 50;
},
{
color = 6;
glyphname = three;
layers = (
{
layerId = m01;
shapes = (
{
closed = 1;
nodes = (
(13,58,o),
(17,45,o),
(30,34,cs),
(56,12,o),
(105,-1,o),
(158,-1,cs),
(278,-1,o),
(359,58,o),
(369,154,cs),
(377,238,o),
(325,298,o),
(227,315,c),
(226,307,l),
(319,321,o),
(366,367,o),
(373,436,cs),
(383,526,o),
(297,568,o),
(220,568,cs),
(165,568,o),
(107,549,o),
(83,533,cs),
(71,525,o),
(66,510,o),
(72,500,cs),
(79,489,o),
(96,489,o),
(110,496,cs),
(133,507,o),
(178,522,o),
(218,522,cs),
(278,522,o),
(330,500,o),
(323,437,cs),
(313,353,o),
(219,330,o),
(124,330,cs),
(113,330,o),
(104,321,o),
(104,308,cs),
(104,296,o),
(113,287,o),
(124,287,cs),
(232,287,o),
(329,259,o),
(319,153,cs),
(312,86,o),
(250,45,o),
(156,45,cs),
(118,45,o),
(80,55,o),
(57,71,cs),
(42,81,o),
(28,81,o),
(20,69,cs)
);
}
);
vertWidth = 0;
width = 433;
},
{
layerId = m002;
shapes = (
{
closed = 1;
nodes = (
(14,84,o),
(15,59,o),
(42,37,cs),
(63,20,o),
(102,-1,o),
(171,-1,cs),
(313,-1,o),
(390,53,o),
(401,161,cs),
(409,239,o),
(346,314,o),
(238,322,c),
(233,295,l),
(323,302,o),
(398,342,o),
(405,415,cs),
(415,517,o),
(358,568,o),
(235,568,cs),
(158,568,o),
(112,546,o),
(91,529,cs),
(64,507,o),
(62,481,o),
(77,460,cs),
(92,440,o),
(122,445,o),
(146,458,cs),
(164,468,o),
(193,478,o),
(234,478,cs),
(285,478,o),
(309,459,o),
(305,422,cs),
(299,370,o),
(265,351,o),
(149,351,cs),
(125,351,o),
(101,333,o),
(101,305,cs),
(101,282,o),
(119,263,o),
(146,263,cs),
(230,263,o),
(310,257,o),
(301,167,cs),
(297,115,o),
(255,89,o),
(176,89,cs),
(130,89,o),
(112,98,o),
(94,110,cs),
(65,131,o),
(42,128,o),
(27,105,cs)
);
}
);
vertWidth = 0;
width = 464;
}
);
unicode = 51;
},
{
color = 6;
glyphname = four;
layers = (
{
layerId = m01;
shapes = (
{
closed = 1;
nodes = (
(204,0,o),
(217,6,o),
(219,26,cs),
(255,358,ls),
(257,375,o),
(248,387,o),
(233,387,cs),
(220,387,o),
(207,382,o),
(205,365,cs),
(169,31,ls),
(167,11,o),
(179,0,o),
(192,0,cs)
);
},
{
closed = 1;
nodes = (
(333,196,ls),
(349,196,o),
(357,207,o),
(357,219,cs),
(357,231,o),
(345,241,o),
(329,241,cs),
(56,241,l),
(83,211,l),
(118,540,ls),
(120,558,o),
(107,568,o),
(95,568,cs),
(83,568,o),
(70,562,o),
(68,544,cs),
(33,219,ls),
(32,208,o),
(41,196,o),
(53,196,cs)
);
}
);
vertWidth = 0;
width = 414;
},
{
layerId = m002;
shapes = (
{
closed = 1;
nodes = (
(249,0,o),
(266,16,o),
(269,44,cs),
(297,350,ls),
(300,379,o),
(285,401,o),
(258,402,cs),
(230,403,o),
(208,391,o),
(205,363,cs),
(175,59,ls),
(172,26,o),
(186,0,o),
(217,0,cs)
);
},
{
closed = 1;
nodes = (
(357,173,ls),
(385,173,o),
(402,193,o),
(403,219,cs),
(404,243,o),
(386,263,o),
(358,263,cs),
(107,263,l),
(134,233,l),
(164,519,ls),
(167,551,o),
(142,568,o),
(117,568,cs),
(93,568,o),
(68,555,o),
(65,527,cs),
(33,221,ls),
(30,196,o),
(52,173,o),
(84,173,cs)
);
}
);
vertWidth = 0;
width = 460;
}
);
unicode = 52;
},
{
color = 6;
glyphname = five;
layers = (
{
layerId = m01;
shapes = (
{
closed = 1;
nodes = (
(266,-1,o),
(346,76,o),
(346,213,cs),
(346,300,o),
(284,350,o),
(183,350,cs),
(150,350,o),
(125,344,o),
(76,329,c),
(102,312,l),
(129,553,l),
(96,523,l),
(331,523,ls),
(351,523,o),
(358,533,o),
(358,545,cs),
(358,557,o),
(350,568,o),
(330,568,cs),
(110,568,l),
(90,568,o),
(80,560,o),
(78,541,cs),
(53,310,ls),
(51,295,o),
(66,282,o),
(81,286,c),
(126,299,o),
(151,304,o),
(176,304,cs),
(250,304,o),
(296,265,o),
(296,201,cs),
(296,107,o),
(234,45,o),
(151,45,cs),
(117,45,o),
(78,57,o),
(60,74,cs),
(55,79,o),
(49,87,o),
(41,87,cs),
(29,87,o),
(17,76,o),
(17,62,cs),
(17,55,o),
(22,46,o),
(31,37,cs),
(53,15,o),
(98,-1,o),
(137,-1,cs)
);
}
);
vertWidth = 0;
width = 405;
},
{
layerId = m002;
shapes = (
{
closed = 1;
nodes = (
(302,-1,o),
(385,76,o),
(385,200,cs),
(385,306,o),
(329,359,o),
(219,359,cs),
(187,359,o),
(175,355,o),
(136,345,c),
(160,327,l),
(183,514,l),
(150,483,l),
(368,483,ls),
(400,483,o),
(413,502,o),
(414,526,cs),
(415,553,o),
(392,568,o),
(362,568,cs),
(151,568,ls),
(108,568,o),
(87,552,o),
(83,521,cs),
(59,309,ls),
(55,273,o),
(80,253,o),
(119,262,cs),
(148,269,o),
(165,273,o),
(201,273,cs),
(256,273,o),
(284,246,o),
(284,193,cs),
(284,126,o),
(244,85,o),
(191,85,cs),
(157,85,o),
(123,96,o),
(100,111,cs),
(88,119,o),
(74,128,o),
(61,128,cs),
(40,128,o),
(20,115,o),
(20,90,cs),
(20,76,o),
(28,63,o),
(43,49,cs),
(74,20,o),
(128,-1,o),
(180,-1,cs)
);
}
);
vertWidth = 0;
width = 445;
}
);
unicode = 53;
},
{
color = 6;
glyphname = six;
layers = (
{
layerId = m01;
shapes = (
{
closed = 1;
nodes = (
(97,-1,o),
(170,-1,cs),
(270,-1,o),
(336,89,o),
(339,196,cs),
(342,301,o),
(289,355,o),
(209,355,cs),
(127,354,o),
(68,292,o),
(68,210,c),
(82,157,l),
(82,243,o),
(134,307,o),
(203,307,cs),
(260,307,o),
(293,267,o),
(289,190,cs),
(286,112,o),
(239,45,o),
(178,45,cs),
(123,45,o),
(82,93,o),
(82,157,cs),
(82,384,o),
(141,524,o),
(236,523,cs),
(269,523,o),
(299,511,o),
(316,492,cs),
(325,482,o),
(341,478,o),
(353,491,cs),
(364,504,o),
(358,514,o),
(350,523,cs),
(326,551,o),
(286,568,o),
(245,568,cs),
(113,568,o),
(32,411,o),
(32,156,cs),
(32,66,o)
);
}
);
vertWidth = 0;
width = 399;
},
{
layerId = m002;
shapes = (
{
closed = 1;
nodes = (
(93,-1,o),
(191,-1,cs),
(301,-1,o),
(371,75,o),
(376,198,cs),
(380,298,o),
(328,360,o),
(241,360,cs),
(169,360,o),
(111,303,o),
(111,226,c),
(130,175,l),
(130,229,o),
(166,270,o),
(215,270,cs),
(254,270,o),
(277,238,o),
(276,186,cs),
(274,126,o),
(243,89,o),
(196,89,cs),
(155,89,o),
(130,122,o),
(130,175,cs),
(130,363,o),
(180,479,o),
(261,479,cs),
(281,479,o),
(300,471,o),
(314,460,cs),
(346,435,o),
(362,432,o),
(385,455,cs),
(406,476,o),
(406,498,o),
(382,519,cs),
(345,552,o),
(306,568,o),
(267,568,cs),
(122,568,o),
(33,418,o),
(33,174,cs),
(33,66,o)
);
}
);
vertWidth = 0;
width = 436;
}
);
unicode = 54;
},
{
color = 6;
glyphname = seven;
layers = (
{
layerId = m01;
shapes = (
{
closed = 1;
nodes = (
(84,0,o),
(98,8,o),
(107,26,cs),
(353,533,ls),
(362,551,o),
(353,568,o),
(334,568,cs),
(93,568,ls),
(75,568,o),
(67,557,o),
(68,546,cs),
(69,534,o),
(78,523,o),
(96,523,cs),
(322,523,l),
(306,550,l),
(61,46,ls),
(46,15,o),
(59,0,o),
(72,0,cs)
);
}
);
vertWidth = 0;
width = 379;
},
{
layerId = m002;
shapes = (
{
closed = 1;
nodes = (
(134,0,o),
(154,18,o),
(166,42,cs),
(387,503,ls),
(404,538,o),
(387,568,o),
(345,568,cs),
(112,568,ls),
(82,568,o),
(64,546,o),
(65,522,cs),
(66,498,o),
(88,478,o),
(118,478,cs),
(294,478,l),
(277,505,l),
(73,75,ls),
(50,27,o),
(84,0,o),
(111,0,cs)
);
}
);
vertWidth = 0;
width = 418;
}
);
unicode = 55;
},
{
color = 6;
glyphname = eight;
layers = (
{
layerId = m01;
shapes = (
{
closed = 1;
nodes = (
(116,45,o),
(78,73,o),
(78,137,cs),
(78,201,o),
(111,235,o),
(188,291,cs),
(265,347,o),
(348,402,o),
(348,464,cs),
(348,547,o),
(276,568,o),
(209,568,cs),
(136,568,o),
(58,533,o),
(58,448,cs),
(58,387,o),
(127,329,o),
(154,302,cs),
(169,287,ls),
(205,251,o),
(263,194,o),
(263,149,cs),
(263,77,o),
(224,45,o),
(166,45,cs)
);
},
{
closed = 1;
nodes = (
(251,-1,o),
(313,58,o),
(313,149,cs),
(313,199,o),
(268,255,o),
(211,310,cs),
(181,339,ls),
(157,363,o),
(108,406,o),
(108,451,cs),
(108,504,o),
(162,522,o),
(206,522,cs),
(255,522,o),
(298,518,o),
(298,465,cs),
(298,421,o),
(227,376,o),
(157,325,cs),
(60,254,o),
(28,209,o),
(28,133,cs),
(28,54,o),
(87,-1,o),
(163,-1,cs)
);
}
);
vertWidth = 0;
width = 380;
},
{
layerId = m002;
shapes = (
{
closed = 1;
nodes = (
(149,84,o),
(121,108,o),
(121,148,cs),
(121,177,o),
(141,219,o),
(234,287,cs),
(312,344,o),
(382,392,o),
(382,465,cs),
(382,532,o),
(296,568,o),
(224,568,cs),
(147,568,o),
(64,526,o),
(64,428,cs),
(64,355,o),
(128,311,o),
(150,289,cs),
(169,270,ls),
(205,234,o),
(252,190,o),
(252,147,cs),
(252,113,o),
(223,84,o),
(182,84,cs)
);
},
{
closed = 1;
nodes = (
(298,-1,o),
(347,86,o),
(347,156,cs),
(347,218,o),
(293,275,o),
(242,322,cs),
(217,345,ls),
(189,371,o),
(156,397,o),
(156,433,cs),
(156,470,o),
(193,488,o),
(228,488,cs),
(260,488,o),
(289,476,o),
(289,456,cs),
(289,436,o),
(228,391,o),
(171,352,cs),
(67,281,o),
(26,204,o),
(26,148,cs),
(26,87,o),
(72,-1,o),
(183,-1,cs)
);
}
);
vertWidth = 0;
width = 414;
}
);
unicode = 56;
},
{
color = 6;
glyphname = nine;
layers = (
{
layerId = m01;
shapes = (
{
closed = 1;
nodes = (
(263,0,o),
(274,6,o),
(276,21,cs),
(331,541,ls),
(333,559,o),
(321,568,o),
(307,568,cs),
(296,568,o),
(284,561,o),
(282,546,cs),
(227,26,ls),
(225,10,o),
(238,0,o),
(252,0,cs)
);
},
{
closed = 1;
nodes = (
(209,218,o),
(246,257,o),
(269,304,c),
(287,466,l),
(281,466,l),
(275,414,o),
(233,264,o),
(166,264,cs),
(114,264,o),
(95,330,o),
(102,395,cs),
(111,480,o),
(152,522,o),
(201,522,cs),
(242,522,o),
(276,509,o),
(289,489,c),
(294,535,l),
(276,555,o),
(241,568,o),
(202,568,cs),
(128,568,o),
(64,513,o),
(52,398,cs),
(43,310,o),
(78,218,o),
(165,218,cs)
);
}
);
vertWidth = 0;
width = 355;
},
{
layerId = m002;
shapes = (
{
closed = 1;
nodes = (
(292,0,o),
(312,21,o),
(315,48,cs),
(365,511,ls),
(369,547,o),
(352,568,o),
(319,568,cs),
(290,568,o),
(268,544,o),
(264,511,cs),
(215,53,ls),
(212,25,o),
(227,0,o),
(262,0,cs)
);
},
{
closed = 1;
nodes = (
(233,210,o),
(277,278,o),
(299,326,c),
(317,480,l),
(261,480,l),
(232,317,o),
(216,300,o),
(181,300,cs),
(158,300,o),
(146,336,o),
(152,388,cs),
(159,453,o),
(181,478,o),
(211,478,cs),
(240,478,o),
(255,474,o),
(306,396,c),
(319,508,l),
(288,535,o),
(247,568,o),
(212,568,cs),
(134,568,o),
(65,511,o),
(52,396,cs),
(43,308,o),
(84,210,o),
(180,210,cs)
);
}
);
vertWidth = 0;
width = 411;
}
);
unicode = 57;
},
{
color = 6;
glyphname = .notdef;
layers = (
{
layerId = m01;
shapes = (
{
closed = 1;
nodes = (
(466,0,o),
(476,12,o),
(478,27,cs),
(547,673,ls),
(549,689,o),
(541,700,o),
(527,700,cs),
(131,700,ls),
(114,700,o),
(104,689,o),
(102,673,cs),
(33,27,ls),
(31,12,o),
(40,0,o),
(59,0,cs),
(455,0,ls)
);
},
{
closed = 1;
nodes = (
(151,655,l),
(494,655,l),
(430,45,l),
(86,45,l)
);
}
);
vertWidth = 0;
width = 576;
},
{
layerId = m002;
shapes = (
{
closed = 1;
nodes = (
(492,0,o),
(513,26,o),
(516,49,cs),
(580,659,ls),
(583,687,o),
(567,700,o),
(530,700,c),
(150,700,l),
(122,700,o),
(102,687,o),
(99,659,cs),
(35,49,ls),
(32,21,o),
(47,0,o),
(86,0,cs),
(467,0,ls)
);
},
{
closed = 1;
nodes = (
(196,605,l),
(473,605,l),
(418,95,l),
(141,95,l)
);
}
);
vertWidth = 0;
width = 611;
}
);
},
{
color = 6;
glyphname = period;
kernLeft = period_left;
kernRight = period_right;
layers = (
{
layerId = m01;
shapes = (
{
closed = 1;
nodes = (
(97,-1,o),
(114,17,o),
(114,40,cs),
(114,62,o),
(97,79,o),
(74,79,cs),
(51,79,o),
(34,62,o),
(34,40,cs),
(34,17,o),
(51,-1,o),
(74,-1,cs)
);
}
);
vertWidth = 0;
width = 210;
},
{
layerId = m002;
shapes = (
{
closed = 1;
nodes = (
(132,0,o),
(162,30,o),
(162,65,cs),
(162,98,o),
(132,126,o),
(99,126,cs),
(64,126,o),
(37,98,o),
(37,65,cs),
(37,30,o),
(64,0,o),
(99,0,cs)
);
}
);
vertWidth = 0;
width = 256;
}
);
unicode = 46;
},
{
color = 6;
glyphname = comma;
kernLeft = period_left;
kernRight = period_right;
layers = (
{
layerId = m01;
shapes = (
{
closed = 1;
nodes = (
(56,-103,o),
(71,-96,o),
(73,-76,cs),
(83,18,ls),
(85,39,o),
(74,49,o),
(61,50,cs),
(47,52,o),
(35,45,o),
(33,28,cs),
(23,-71,ls),
(21,-89,o),
(32,-99,o),
(44,-101,cs)
);
}
);
vertWidth = 0;
width = 181;
},
{
layerId = m002;
shapes = (
{
closed = 1;
nodes = (
(102,-79,o),
(123,-68,o),
(131,-37,cs),
(157,67,ls),
(169,113,o),
(136,129,o),
(109,129,cs),
(83,129,o),
(63,119,o),
(55,87,cs),
(29,-17,ls),
(18,-62,o),
(50,-79,o),
(76,-79,cs)
);
}
);
vertWidth = 0;
width = 256;
}
);
unicode = 44;
},
{
color = 6;
glyphname = colon;
kernLeft = colon_left;
kernRight = colon_right;
layers = (
{
layerId = m01;
shapes = (
{
closed = 1;
nodes = (
(97,-1,o),
(114,17,o),
(114,40,cs),
(114,62,o),
(97,79,o),
(74,79,cs),
(51,79,o),
(34,62,o),
(34,40,cs),
(34,17,o),
(51,-1,o),
(74,-1,cs)
);
},
{
closed = 1;
nodes = (
(125,274,o),
(142,292,o),
(142,315,cs),
(142,337,o),
(125,354,o),
(102,354,cs),
(79,354,o),
(62,337,o),
(62,315,cs),
(62,292,o),
(79,274,o),
(102,274,cs)
);
}
);
vertWidth = 0;
width = 212;
},
{
guides = (
{
angle = 84;
name = " [#ZJiWTdyg8t]";
pos = (62,306);
}
);
layerId = m002;
shapes = (
{
closed = 1;
nodes = (
(132,0,o),
(162,30,o),
(162,65,cs),
(162,98,o),
(132,126,o),
(99,126,cs),
(64,126,o),
(37,98,o),
(37,65,cs),
(37,30,o),
(64,0,o),
(99,0,cs)
);
},
{
closed = 1;
nodes = (
(157,233,o),
(187,263,o),
(187,298,cs),
(187,331,o),
(157,359,o),
(124,359,cs),
(89,359,o),
(62,331,o),
(62,298,cs),
(62,263,o),
(89,233,o),
(124,233,cs)
);
}
);
vertWidth = 0;
width = 256;
}
);
unicode = 58;
},
{
color = 6;
glyphname = semicolon;
kernLeft = colon_left;
kernRight = colon_right;
layers = (
{
layerId = m01;
shapes = (
{
closed = 1;
nodes = (
(73,-103,o),
(85,-95,o),
(87,-78,cs),
(99,21,ls),
(101,39,o),
(89,49,o),
(76,50,cs),
(62,52,o),
(50,45,o),
(48,28,cs),
(38,-71,ls),
(36,-90,o),
(49,-101,o),
(62,-102,cs)
);
},
{
closed = 1;
nodes = (
(125,274,o),
(142,292,o),
(142,315,cs),
(142,337,o),
(125,354,o),
(102,354,cs),
(79,354,o),
(62,337,o),
(62,315,cs),
(62,292,o),
(79,274,o),
(102,274,cs)
);
}
);
vertWidth = 0;
width = 212;
},
{
layerId = m002;
shapes = (
{
closed = 1;
nodes = (
(102,-79,o),
(123,-68,o),
(131,-37,cs),
(157,67,ls),
(169,113,o),
(136,129,o),
(109,129,cs),
(83,129,o),
(63,119,o),
(55,87,cs),
(29,-17,ls),
(18,-62,o),
(50,-79,o),
(76,-79,cs)
);
},
{
closed = 1;
nodes = (
(157,233,o),
(187,263,o),
(187,298,cs),
(187,331,o),
(157,359,o),
(124,359,cs),
(89,359,o),
(62,331,o),
(62,298,cs),
(62,263,o),
(89,233,o),
(124,233,cs)
);
}
);
vertWidth = 0;
width = 256;
}
);
unicode = 59;
},
{
color = 6;
glyphname = ellipsis;
layers = (
{
layerId = m01;
shapes = (
{
closed = 1;
nodes = (
(97,-1,o),
(114,17,o),
(114,40,cs),
(114,62,o),
(97,79,o),
(74,79,cs),
(51,79,o),
(34,62,o),
(34,40,cs),
(34,17,o),
(51,-1,o),
(74,-1,cs)
);
},
{
closed = 1;
nodes = (
(237,-1,o),
(254,17,o),
(254,40,cs),
(254,62,o),
(237,79,o),
(214,79,cs),
(191,79,o),
(174,62,o),
(174,40,cs),
(174,17,o),
(191,-1,o),
(214,-1,cs)
);
},
{
closed = 1;
nodes = (
(377,-1,o),
(394,17,o),
(394,40,cs),
(394,62,o),
(377,79,o),
(354,79,cs),
(331,79,o),
(314,62,o),
(314,40,cs),
(314,17,o),
(331,-1,o),
(354,-1,cs)
);
}
);
vertWidth = 0;
width = 490;
},
{
layerId = m002;
shapes = (
{
closed = 1;
nodes = (
(132,0,o),
(162,30,o),
(162,65,cs),
(162,98,o),
(132,126,o),
(99,126,cs),
(64,126,o),
(37,98,o),
(37,65,cs),
(37,30,o),
(64,0,o),
(99,0,cs)
);
},
{
closed = 1;
nodes = (
(322,0,o),
(352,30,o),
(352,65,cs),
(352,98,o),
(322,126,o),
(289,126,cs),
(254,126,o),
(227,98,o),
(227,65,cs),
(227,30,o),
(254,0,o),
(289,0,cs)
);
},
{
closed = 1;
nodes = (
(512,0,o),
(542,30,o),
(542,65,cs),
(542,98,o),
(512,126,o),
(479,126,cs),
(444,126,o),
(417,98,o),
(417,65,cs),
(417,30,o),
(444,0,o),
(479,0,cs)
);
}
);
vertWidth = 0;
width = 636;
}
);
unicode = 8230;
},
{
color = 6;
glyphname = exclam;
layers = (
{
layerId = m01;
shapes = (
{
closed = 1;
nodes = (
(110,174,o),
(124,183,o),
(126,202,cs),
(172,629,ls),
(174,643,o),
(163,650,o),
(151,650,cs),
(138,650,o),
(123,643,o),
(121,629,cs),
(75,202,ls),
(73,185,o),
(86,176,o),
(98,175,cs)
);
},
{
closed = 1;
nodes = (
(106,-1,o),
(123,17,o),
(123,40,cs),
(123,62,o),
(106,79,o),
(83,79,cs),
(60,79,o),
(43,62,o),
(43,40,cs),
(43,17,o),
(60,-1,o),
(83,-1,cs)
);
}
);
vertWidth = 0;
width = 227;
},
{
layerId = m002;
shapes = (
{
closed = 1;
nodes = (
(152,176,o),
(182,185,o),
(186,220,cs),
(227,587,ls),
(232,633,o),
(212,650,o),
(181,650,cs),
(162,650,o),
(132,641,o),
(128,607,cs),
(87,240,ls),
(82,193,o),
(102,176,o),
(133,176,cs)
);
},
{
closed = 1;
nodes = (
(152,0,o),
(182,30,o),
(182,65,cs),
(182,98,o),
(152,126,o),
(119,126,cs),
(84,126,o),
(57,98,o),
(57,65,cs),
(57,30,o),
(84,0,o),
(119,0,cs)
);
}
);
vertWidth = 0;
width = 296;
}
);
unicode = 33;
},
{
color = 6;
glyphname = exclamdown;
layers = (
{
layerId = m01;
shapes = (
{
closed = 1;
nodes = (
(89,-1,o),
(104,6,o),
(106,20,cs),
(152,447,ls),
(154,464,o),
(141,473,o),
(129,474,cs),
(117,475,o),
(103,466,o),
(101,447,cs),
(55,20,ls),
(53,6,o),
(64,-1,o),
(76,-1,cs)
);
},
{
closed = 1;
nodes = (
(167,570,o),
(184,587,o),
(184,609,cs),
(184,632,o),
(167,650,o),
(144,650,cs),
(121,650,o),
(104,632,o),
(104,609,cs),
(104,587,o),
(121,570,o),
(144,570,cs)
);
}
);
vertWidth = 0;
width = 227;
},
{
layerId = m002;
shapes = (
{
closed = 1;
nodes = (
(132,0,o),
(162,9,o),
(166,43,cs),
(207,410,ls),
(212,457,o),
(192,474,o),
(161,474,cs),
(142,474,o),
(112,465,o),
(108,430,cs),
(67,63,ls),
(62,17,o),
(82,0,o),
(113,0,cs)
);
},
{
closed = 1;
nodes = (
(210,524,o),
(237,552,o),
(237,585,cs),
(237,620,o),
(210,650,o),
(175,650,cs),
(142,650,o),
(112,620,o),
(112,585,cs),
(112,552,o),
(142,524,o),
(175,524,cs)
);
}
);
vertWidth = 0;
width = 296;
}
);
unicode = 161;
},
{
color = 6;
glyphname = question;
layers = (
{
layerId = m01;
shapes = (
{
closed = 1;
nodes = (
(189,174,o),
(202,180,o),
(205,202,c),
(213,277,l),
(327,285,o),
(417,355,o),
(417,495,cs),
(417,592,o),
(355,651,o),
(255,650,cs),
(150,650,o),
(90,584,o),
(81,489,cs),
(79,467,o),
(91,456,o),
(102,456,cs),
(116,456,o),
(128,462,o),
(130,484,cs),
(136,541,o),
(170,604,o),
(255,604,cs),
(324,604,o),
(367,562,o),
(367,494,cs),
(367,381,o),
(290,322,o),
(188,322,c),
(177,322,o),
(166,313,o),
(165,302,cs),
(154,201,ls),
(152,187,o),
(164,174,o),
(176,174,cs)
);
},
{
closed = 1;
nodes = (
(187,-1,o),
(204,17,o),
(204,40,cs),
(204,62,o),
(187,79,o),
(164,79,cs),
(141,79,o),
(124,62,o),
(124,40,cs),
(124,17,o),
(141,-1,o),
(164,-1,cs)
);
}
);
vertWidth = 0;
width = 467;
},
{
layerId = m002;
shapes = (
{
closed = 1;
nodes = (
(209,176,o),
(231,193,o),
(235,225,cs),
(240,268,l),
(370,281,o),
(424,367,o),
(435,464,cs),
(448,572,o),
(377,650,o),
(271,650,cs),
(173,650,o),
(92,585,o),
(82,493,cs),
(77,458,o),
(99,434,o),
(130,434,cs),
(149,434,o),
(174,443,o),
(177,476,cs),
(181,527,o),
(219,561,o),
(265,561,cs),
(313,561,o),
(346,523,o),
(340,469,cs),
(339,455,o),
(329,355,o),
(194,356,c),
(169,356,o),
(152,342,o),
(149,313,cs),
(140,233,ls),
(137,207,o),
(153,176,o),
(187,176,cs)
);
},
{
closed = 1;
nodes = (
(195,-1,o),
(223,27,o),
(224,57,cs),
(225,88,o),
(196,116,o),
(164,116,cs),
(131,116,o),
(107,86,o),
(107,57,cs),
(107,29,o),
(130,-1,o),
(163,-1,cs)
);
}
);
vertWidth = 0;
width = 486;
}
);
unicode = 63;
},
{
color = 6;
glyphname = questiondown;
layers = (
{
layerId = m01;
shapes = (
{
closed = 1;
nodes = (
(315,-1,o),
(375,65,o),
(384,160,cs),
(386,182,o),
(374,193,o),
(363,193,cs),
(349,193,o),
(337,187,o),
(335,165,cs),
(329,108,o),
(295,45,o),
(210,45,cs),
(141,45,o),
(98,87,o),
(98,155,cs),
(98,268,o),
(175,327,o),
(277,327,c),
(288,327,o),
(299,336,o),
(300,347,cs),
(311,448,ls),
(313,462,o),
(301,475,o),
(289,475,cs),
(276,475,o),
(263,469,o),
(260,447,c),
(252,372,l),
(138,364,o),
(48,294,o),
(48,154,cs),
(48,57,o),
(110,-2,o),
(210,-1,cs)
);
},
{
closed = 1;
nodes = (
(324,570,o),
(341,587,o),
(341,609,cs),
(341,632,o),
(324,650,o),
(301,650,cs),
(278,650,o),
(261,632,o),
(261,609,cs),
(261,587,o),
(278,570,o),
(301,570,cs)
);
}
);
vertWidth = 0;
width = 467;
},
{
layerId = m002;
shapes = (
{
closed = 1;
nodes = (
(311,-1,o),
(392,64,o),
(402,156,cs),
(407,191,o),
(385,215,o),
(354,215,cs),
(335,215,o),
(310,206,o),
(307,173,cs),
(303,122,o),
(265,88,o),
(219,88,cs),
(171,88,o),
(138,126,o),
(144,180,cs),
(145,194,o),
(155,294,o),
(290,293,c),
(315,293,o),
(332,307,o),
(335,336,cs),
(344,416,ls),
(347,442,o),
(331,473,o),
(297,473,cs),
(275,473,o),
(253,456,o),
(249,424,cs),
(244,381,l),
(114,368,o),
(60,282,o),
(49,185,cs),
(36,77,o),
(107,-1,o),
(213,-1,cs)
);
},
{
closed = 1;
nodes = (
(353,533,o),
(377,563,o),
(377,592,cs),
(377,620,o),
(354,650,o),
(321,650,cs),
(289,650,o),
(261,622,o),
(260,592,cs),
(259,561,o),
(288,533,o),
(320,533,cs)
);
}
);
vertWidth = 0;
width = 486;
}
);
unicode = 191;
},
{
color = 6;
glyphname = periodcentered;
layers = (
{
layerId = m01;
shapes = (
{
closed = 1;
nodes = (
(128,193,o),
(145,211,o),
(145,234,cs),
(145,256,o),
(128,273,o),
(105,273,cs),
(82,273,o),
(65,256,o),
(65,234,cs),
(65,211,o),
(82,193,o),
(105,193,cs)
);
}
);
vertWidth = 0;
width = 212;
},
{
layerId = m002;
shapes = (
{
closed = 1;
nodes = (
(148,149,o),
(178,179,o),
(178,214,cs),
(178,247,o),
(148,275,o),
(115,275,cs),
(80,275,o),
(53,247,o),
(53,214,cs),
(53,179,o),
(80,149,o),
(115,149,cs)
);
}
);
vertWidth = 0;
width = 256;
}
);
unicode = 183;
},
{
color = 6;
glyphname = bullet;
layers = (
{
layerId = m01;
shapes = (
{
closed = 1;
nodes = (
(182,278,o),
(218,314,o),
(218,355,cs),
(218,396,o),
(183,430,o),
(142,430,cs),
(101,430,o),
(68,395,o),
(68,355,cs),
(68,316,o),
(100,278,o),
(142,278,cs)
);
}
);
vertWidth = 0;
width = 281;
},
{
layerId = m002;
shapes = (
{
closed = 1;
nodes = (
(211,258,o),
(258,304,o),
(258,355,cs),
(258,407,o),
(212,450,o),
(162,450,cs),
(109,450,o),
(68,406,o),
(68,355,cs),
(68,305,o),
(109,258,o),
(162,258,cs)
);
}
);
vertWidth = 0;
width = 321;
}
);
unicode = 8226;
},
{
color = 6;
glyphname = asterisk;
layers = (
{
layerId = m01;
shapes = (
{
closed = 1;
nodes = (
(91,483,o),
(103,481,o),
(119,490,cs),
(249,574,ls),
(265,584,o),
(267,598,o),
(261,607,cs),
(255,614,o),
(243,617,o),
(228,608,cs),
(98,524,ls),
(82,513,o),
(79,499,o),
(86,491,cs)
);
},
{
closed = 1;
nodes = (
(256,499,o),
(255,511,o),
(242,521,cs),
(128,606,ls),
(115,616,o),
(103,614,o),
(98,606,cs),
(91,599,o),
(92,586,o),
(106,576,cs),
(219,492,ls),
(232,482,o),
(245,484,o),
(252,492,cs)
);
},
{
closed = 1;
nodes = (
(171,447,o),
(183,456,o),
(185,475,cs),
(200,623,ls),
(202,641,o),
(194,650,o),
(185,650,cs),
(175,650,o),
(163,641,o),
(161,623,cs),
(146,475,ls),
(144,458,o),
(152,450,o),
(161,448,cs)
);
}
);
vertWidth = 0;
width = 302;
},
{
layerId = m002;
shapes = (
{
closed = 1;
nodes = (
(99,418,o),
(130,411,o),
(156,428,cs),
(321,535,ls),
(346,551,o),
(354,575,o),
(338,598,cs),
(326,614,o),
(296,621,o),
(273,606,cs),
(104,497,l),
(83,481,o),
(73,458,o),
(87,437,cs)
);
},
{
closed = 1;
nodes = (
(354,448,o),
(350,470,o),
(327,487,cs),
(163,608,ls),
(140,625,o),
(111,621,o),
(99,604,cs),
(85,586,o),
(89,563,o),
(114,545,cs),
(275,426,l),
(301,409,o),
(330,413,o),
(342,430,cs)
);
},
{
closed = 1;
nodes = (
(218,368,o),
(246,385,o),
(249,416,cs),
(271,615,ls),
(275,647,o),
(252,667,o),
(228,667,cs),
(207,667,o),
(185,650,o),
(182,623,cs),
(160,424,ls),
(157,395,o),
(175,378,o),
(196,373,cs)
);
}
);
vertWidth = 0;
width = 401;
}
);
unicode = 42;
},
{
color = 6;
glyphname = numbersign;
layers = (
{
layerId = m01;
shapes = (
{
closed = 1;
nodes = (
(212,-1,o),
(226,8,o),
(229,28,cs),
(284,543,ls),
(286,559,o),
(274,568,o),
(261,568,cs),
(248,568,o),
(235,560,o),
(233,543,cs),
(178,28,ls),
(176,10,o),
(187,0,o),
(199,0,cs)
);
},
{
closed = 1;
nodes = (
(470,0,o),
(483,9,o),
(485,28,cs),
(540,543,ls),
(542,559,o),
(530,567,o),
(518,568,cs),
(505,568,o),
(491,560,o),
(489,543,cs),
(434,28,ls),
(432,9,o),
(444,-1,o),
(457,0,cs)
);
},
{
closed = 1;
nodes = (
(621,147,ls),
(638,147,o),
(646,159,o),
(645,170,cs),
(644,181,o),
(636,192,o),
(618,192,cs),
(73,192,ls),
(55,192,o),
(47,181,o),
(48,170,cs),
(49,159,o),
(59,147,o),
(76,147,cs)
);
},
{
closed = 1;
nodes = (
(645,384,ls),
(663,384,o),
(671,395,o),
(671,406,cs),
(670,417,o),
(660,429,o),
(642,429,cs),
(98,429,ls),
(80,429,o),
(72,417,o),
(73,406,cs),
(73,395,o),
(83,384,o),
(101,384,cs)
);
}
);
vertWidth = 0;
width = 728;
},
{
layerId = m002;
shapes = (
{
closed = 1;
nodes = (
(239,0,o),
(267,10,o),
(270,39,cs),
(321,523,ls),
(324,552,o),
(299,568,o),
(272,568,cs),
(247,568,o),
(227,557,o),
(224,530,cs),
(172,47,ls),
(169,16,o),
(189,0,o),
(215,0,cs)
);
},
{
closed = 1;
nodes = (
(487,0,o),
(508,11,o),
(511,39,cs),
(562,523,ls),
(566,555,o),
(541,568,o),
(518,568,cs),
(494,568,o),
(467,558,o),
(464,531,cs),
(413,47,ls),
(409,13,o),
(436,0,o),
(463,0,cs)
);
},
{
closed = 1;
nodes = (
(615,133,ls),
(644,133,o),
(662,153,o),
(661,177,cs),
(659,200,o),
(639,218,o),
(609,218,cs),
(97,218,ls),
(67,218,o),
(48,200,o),
(50,177,cs),
(51,153,o),
(74,133,o),
(103,133,cs)
);
},
{
closed = 1;
nodes = (
(637,357,ls),
(667,357,o),
(687,375,o),
(685,399,cs),
(683,422,o),
(661,442,o),
(631,442,cs),
(120,442,ls),
(90,442,o),
(71,422,o),
(73,399,cs),
(75,375,o),
(96,357,o),
(126,357,cs)
);
}
);
vertWidth = 0;
width = 744;
}
);
unicode = 35;
},
{
color = 6;
glyphname = slash;
layers = (
{
layerId = m01;
shapes = (
{
closed = 1;
nodes = (
(25,-39,o),
(36,-33,o),
(41,-19,cs),
(268,616,ls),
(276,637,o),
(260,650,o),
(245,650,cs),
(234,650,o),
(223,644,o),
(217,627,cs),
(-10,-8,ls),
(-17,-27,o),
(-2,-39,o),
(14,-39,cs)
);
}
);
vertWidth = 0;
width = 274;
},
{
layerId = m002;
shapes = (
{
closed = 1;
nodes = (
(101,-52,o),
(123,-42,o),
(131,-20,cs),
(353,588,ls),
(366,624,o),
(334,650,o),
(304,650,cs),
(284,650,o),
(262,639,o),
(253,614,cs),
(32,8,ls),
(19,-27,o),
(50,-52,o),
(82,-52,cs)
);
}
);
vertWidth = 0;
width = 397;
}
);
unicode = 47;
},
{
color = 6;
glyphname = backslash;
layers = (
{
layerId = m01;
shapes = (
{
closed = 1;
nodes = (
(36,650,o),
(21,638,o),
(28,619,cs),
(255,-16,ls),
(261,-33,o),
(272,-39,o),
(283,-39,cs),
(298,-39,o),
(314,-26,o),
(306,-5,cs),
(79,630,ls),
(74,644,o),
(63,650,o),
(52,650,cs)
);
}
);
vertWidth = 0;
width = 274;
},
{
layerId = m002;
shapes = (
{
closed = 1;
nodes = (
(105,650,o),
(78,625,o),
(87,590,cs),
(243,-16,ls),
(249,-41,o),
(274,-52,o),
(294,-52,cs),
(324,-52,o),
(352,-26,o),
(343,10,cs),
(186,618,ls),
(180,640,o),
(156,650,o),
(137,650,cs)
);
}
);
vertWidth = 0;
width = 397;
}
);
unicode = 92;
},
{
color = 6;
glyphname = hyphen;
kernLeft = hyphen_left;
kernRight = hyphen_right;
layers = (
{
layerId = m01;
shapes = (
{
closed = 1;
nodes = (
(228,177,ls),
(247,177,o),
(259,185,o),
(259,200,cs),
(259,215,o),
(248,223,o),
(230,223,cs),
(82,223,ls),
(63,223,o),
(51,215,o),
(51,200,cs),
(51,185,o),
(62,177,o),
(80,177,cs)
);
}
);
vertWidth = 0;
width = 338;
},
{
layerId = m002;
shapes = (
{
closed = 1;
nodes = (
(245,154,ls),
(281,154,o),
(303,172,o),
(303,200,cs),
(303,227,o),
(284,244,o),
(254,244,cs),
(109,244,ls),
(73,244,o),
(51,226,o),
(51,198,cs),
(51,171,o),
(70,154,o),
(100,154,cs)
);
}
);
vertWidth = 0;
width = 382;
}
);
unicode = 45;
},
{
color = 6;
glyphname = endash;
kernLeft = hyphen_left;
kernRight = hyphen_right;
layers = (
{
layerId = m01;
shapes = (
{
closed = 1;
nodes = (
(278,177,ls),
(297,177,o),
(309,185,o),
(309,200,cs),
(309,215,o),
(298,223,o),
(280,223,cs),
(82,223,ls),
(63,223,o),
(51,215,o),
(51,200,cs),
(51,185,o),
(62,177,o),
(80,177,cs)
);
}
);
vertWidth = 0;
width = 388;
},
{
layerId = m002;
shapes = (
{
closed = 1;
nodes = (
(326,154,ls),
(362,154,o),
(384,172,o),
(384,200,cs),
(384,227,o),
(365,244,o),
(335,244,cs),
(109,244,ls),
(73,244,o),
(51,226,o),
(51,198,cs),
(51,171,o),
(70,154,o),
(100,154,cs)
);
}
);
vertWidth = 0;
width = 463;
}
);
unicode = 8211;
},
{
color = 6;
glyphname = emdash;
kernLeft = hyphen_left;
kernRight = hyphen_right;
layers = (
{
layerId = m01;
shapes = (
{
closed = 1;
nodes = (
(428,177,ls),
(447,177,o),
(459,185,o),
(459,200,cs),
(459,215,o),
(448,223,o),
(430,223,cs),
(82,223,ls),
(63,223,o),
(51,215,o),
(51,200,cs),
(51,185,o),
(62,177,o),
(80,177,cs)
);
}
);
vertWidth = 0;
width = 538;
},
{
layerId = m002;
shapes = (
{
closed = 1;
nodes = (
(418,154,ls),
(454,154,o),
(476,172,o),
(476,200,cs),
(476,227,o),
(457,244,o),
(427,244,cs),
(109,244,ls),
(73,244,o),
(51,226,o),
(51,198,cs),
(51,171,o),
(70,154,o),
(100,154,cs)
);
}
);
vertWidth = 0;
width = 555;
}
);
unicode = 8212;
},
{
color = 6;
glyphname = underscore;
kernLeft = hyphen_left;
kernRight = hyphen_right;
layers = (
{
layerId = m01;
shapes = (
{
closed = 1;
nodes = (
(301,-80,ls),
(320,-80,o),
(332,-72,o),
(332,-57,cs),
(332,-42,o),
(321,-34,o),
(303,-34,cs),
(55,-34,ls),
(36,-34,o),
(24,-42,o),
(24,-57,cs),
(24,-72,o),
(35,-80,o),
(53,-80,cs)
);
}
);
vertWidth = 0;
width = 438;
},
{
layerId = m002;
shapes = (
{
closed = 1;
nodes = (
(300,-98,ls),
(336,-98,o),
(358,-80,o),
(358,-52,cs),
(358,-25,o),
(339,-8,o),
(309,-8,cs),
(83,-8,ls),
(47,-8,o),
(25,-26,o),
(25,-54,cs),
(25,-81,o),
(44,-98,o),
(74,-98,cs)
);
}
);
vertWidth = 0;
width = 464;
}
);
unicode = 95;
},
{
color = 6;
glyphname = parenleft;
layers = (
{
layerId = m01;
shapes = (
{
closed = 1;
nodes = (
(192,-298,o),
(204,-304,o),
(215,-297,cs),
(225,-291,o),
(225,-277,o),
(216,-260,cs),
(122,-87,o),
(88,64,o),
(103,200,cs),
(116,323,o),
(198,490,o),
(307,607,cs),
(323,625,o),
(324,639,o),
(317,646,cs),
(308,654,o),
(290,651,o),
(272,633,cs),
(150,507,o),
(65,330,o),
(52,200,cs),
(37,64,o),
(72,-94,o),
(182,-282,cs)
);
}
);
vertWidth = 0;
width = 354;
},
{
layerId = m002;
shapes = (
{
closed = 1;
nodes = (
(193,-304,o),
(229,-310,o),
(249,-295,cs),
(263,-283,o),
(266,-264,o),
(252,-235,c),
(160,-66,o),
(137,80,o),
(152,213,cs),
(165,333,o),
(226,456,o),
(336,574,cs),
(365,605,o),
(358,628,o),
(343,643,cs),
(327,658,o),
(294,659,o),
(265,631,cs),
(142,505,o),
(60,330,o),
(48,221,cs),
(31,64,o),
(71,-112,o),
(175,-275,cs)
);
}
);
vertWidth = 0;
width = 360;
}
);
unicode = 40;
},
{
color = 6;
glyphname = parenright;
layers = (
{
layerId = m01;
shapes = (
{
closed = 1;
nodes = (
(13,-304,o),
(31,-301,o),
(49,-283,cs),
(171,-157,o),
(256,20,o),
(269,150,cs),
(284,286,o),
(249,444,o),
(139,632,cs),
(129,648,o),
(117,654,o),
(106,647,cs),
(96,641,o),
(96,627,o),
(105,610,cs),
(199,437,o),
(233,286,o),
(218,150,cs),
(205,27,o),
(123,-140,o),
(14,-257,cs),
(-2,-275,o),
(-3,-289,o),
(4,-296,cs)
);
}
);
vertWidth = 0;
width = 354;
},
{
layerId = m002;
shapes = (
{
closed = 1;
nodes = (
(9,-289,o),
(46,-291,o),
(66,-270,cs),
(202,-132,o),
(282,41,o),
(294,164,cs),
(307,299,o),
(270,480,o),
(171,631,cs),
(146,669,o),
(118,679,o),
(96,669,cs),
(79,660,o),
(68,640,o),
(88,601,cs),
(170,448,o),
(203,309,o),
(191,190,cs),
(177,56,o),
(125,-76,o),
(2,-207,cs),
(-16,-225,o),
(-25,-249,o),
(-8,-267,cs)
);
}
);
vertWidth = 0;
width = 360;
}
);
unicode = 41;
},
{
color = 6;
glyphname = braceleft;
layers = (
{
layerId = m01;
shapes = (
{
closed = 1;
nodes = (
(181,-306,o),
(199,-308,o),
(209,-298,cs),
(220,-289,o),
(214,-268,o),
(199,-258,cs),
(159,-231,o),
(124,-212,o),
(116,-158,cs),
(107,-95,o),
(162,9,o),
(165,63,cs),
(168,107,o),
(155,144,o),
(113,197,c),
(167,236,o),
(186,267,o),
(193,311,cs),
(200,364,o),
(163,479,o),
(192,534,cs),
(211,570,o),
(263,583,o),
(308,595,cs),
(324,599,o),
(339,615,o),
(335,629,cs),
(332,644,o),
(306,652,o),
(284,645,cs),
(245,634,o),
(170,600,o),
(146,550,cs),
(117,492,o),
(149,366,o),
(140,317,cs),
(135,288,o),
(116,264,o),
(84,240,cs),
(67,228,o),
(53,221,o),
(52,205,cs),
(52,188,o),
(65,178,o),
(77,162,cs),
(102,129,o),
(114,100,o),
(112,71,cs),
(108,14,o),
(55,-94,o),
(65,-160,cs),
(74,-217,o),
(129,-267,o),
(165,-294,cs)
);
}
);
vertWidth = 0;
width = 370;
},
{
layerId = m002;
shapes = (
{
closed = 1;
nodes = (
(180,-311,o),
(211,-308,o),
(223,-289,cs),
(239,-268,o),
(226,-252,o),
(209,-235,cs),
(184,-211,o),
(167,-187,o),
(162,-139,cs),
(157,-83,o),
(196,12,o),
(197,66,cs),
(200,114,o),
(191,154,o),
(163,197,c),
(198,219,o),
(210,255,o),
(216,302,cs),
(221,357,o),
(200,459,o),
(214,511,cs),
(227,552,o),
(260,567,o),
(289,576,cs),
(311,585,o),
(322,605,o),
(310,628,cs),
(298,656,o),
(265,652,o),
(243,642,cs),
(215,629,o),
(141,599,o),
(124,540,cs),
(107,475,o),
(125,369,o),
(120,316,cs),
(116,291,o),
(107,273,o),
(89,254,cs),
(70,235,o),
(63,225,o),
(62,206,cs),
(61,182,o),
(71,172,o),
(82,153,cs),
(97,126,o),
(103,103,o),
(101,79,cs),
(98,26,o),
(60,-75,o),
(68,-143,cs),
(75,-203,o),
(126,-256,o),
(155,-285,cs)
);
}
);
vertWidth = 0;
width = 360;
}
);
unicode = 123;
},
{
color = 6;
glyphname = braceright;
layers = (
{
layerId = m01;
shapes = (
{
closed = 1;
nodes = (
(91,-288,o),
(166,-255,o),
(191,-205,cs),
(220,-147,o),
(188,10,o),
(197,59,cs),
(203,88,o),
(221,112,o),
(253,136,cs),
(270,148,o),
(285,155,o),
(285,171,cs),
(286,188,o),
(273,198,o),
(260,214,cs),
(235,247,o),
(224,276,o),
(225,305,cs),
(230,362,o),
(281,439,o),
(271,505,cs),
(262,562,o),
(208,612,o),
(171,639,cs),
(155,651,o),
(137,653,o),
(127,643,cs),
(117,634,o),
(123,613,o),
(137,603,cs),
(177,576,o),
(213,557,o),
(220,503,cs),
(229,440,o),
(176,367,o),
(172,313,cs),
(169,269,o),
(184,232,o),
(225,179,c),
(172,140,o),
(152,109,o),
(145,65,cs),
(137,13,o),
(173,-134,o),
(144,-188,cs),
(125,-224,o),
(73,-239,o),
(29,-250,cs),
(12,-255,o),
(-2,-270,o),
(1,-284,cs),
(4,-299,o),
(30,-307,o),
(52,-300,cs)
);
}
);
vertWidth = 0;
width = 370;
},
{
layerId = m002;
shapes = (
{
closed = 1;
nodes = (
(111,-273,o),
(169,-235,o),
(188,-179,cs),
(209,-116,o),
(197,-11,o),
(204,40,cs),
(208,66,o),
(221,83,o),
(239,107,cs),
(251,123,o),
(262,141,o),
(266,159,cs),
(269,174,o),
(266,182,o),
(252,205,cs),
(237,231,o),
(232,253,o),
(233,278,c),
(239,332,o),
(279,430,o),
(273,497,cs),
(268,558,o),
(207,607,o),
(180,630,cs),
(158,648,o),
(126,662,o),
(109,637,cs),
(96,618,o),
(99,598,o),
(122,580,cs),
(147,562,o),
(176,536,o),
(181,493,cs),
(183,437,o),
(143,343,o),
(137,289,cs),
(133,241,o),
(140,202,o),
(165,167,c),
(132,139,o),
(117,101,o),
(110,55,cs),
(102,0,o),
(114,-99,o),
(99,-151,cs),
(84,-195,o),
(65,-213,o),
(37,-227,cs),
(13,-240,o),
(1,-254,o),
(9,-275,cs),
(18,-300,o),
(52,-309,o),
(78,-291,c)
);
}
);
vertWidth = 0;
width = 360;
}
);
unicode = 125;
},
{
color = 6;
glyphname = bracketleft;
layers = (
{
layerId = m01;
shapes = (
{
closed = 1;
nodes = (
(170,-300,ls),
(187,-300,o),
(195,-288,o),
(194,-277,cs),
(194,-266,o),
(185,-255,o),
(167,-255,cs),
(54,-255,l),
(146,605,l),
(266,605,ls),
(283,605,o),
(291,616,o),
(291,627,cs),
(291,638,o),
(282,650,o),
(263,650,cs),
(125,650,ls),
(106,650,o),
(98,639,o),
(96,623,cs),
(1,-273,ls),
(-1,-287,o),
(7,-300,o),
(25,-300,cs)
);
}
);
vertWidth = 0;
width = 325;
},
{
layerId = m002;
shapes = (
{
closed = 1;
nodes = (
(204,-300,ls),
(234,-300,o),
(250,-284,o),
(253,-258,cs),
(256,-230,o),
(229,-215,o),
(198,-215,cs),
(121,-215,l),
(204,565,l),
(296,565,ls),
(324,565,o),
(342,582,o),
(345,605,cs),
(348,633,o),
(320,650,o),
(291,650,c),
(158,650,ls),
(130,650,o),
(110,637,o),
(107,609,cs),
(16,-251,ls),
(13,-278,o),
(33,-300,o),
(66,-300,cs)
);
}
);
vertWidth = 0;
width = 360;
}
);
unicode = 91;
},
{
color = 6;
glyphname = bracketright;
layers = (
{
layerId = m01;
shapes = (
{
closed = 1;
nodes = (
(165,-300,ls),
(187,-300,o),
(193,-289,o),
(195,-273,cs),
(290,623,ls),
(292,638,o),
(284,650,o),
(264,650,cs),
(123,650,ls),
(105,650,o),
(96,638,o),
(97,627,cs),
(98,616,o),
(108,605,o),
(126,605,cs),
(238,605,l),
(146,-255,l),
(27,-255,ls),
(10,-255,o),
(1,-266,o),
(1,-277,cs),
(2,-289,o),
(11,-300,o),
(30,-300,cs)
);
}
);
vertWidth = 0;
width = 325;
},
{
layerId = m002;
shapes = (
{
closed = 1;
nodes = (
(171,-300,ls),
(201,-300,o),
(219,-287,o),
(222,-259,cs),
(314,601,ls),
(317,629,o),
(296,650,o),
(263,650,cs),
(127,650,ls),
(96,650,o),
(81,634,o),
(78,607,cs),
(75,583,o),
(101,565,o),
(132,565,cs),
(208,565,l),
(125,-215,l),
(34,-215,ls),
(8,-215,o),
(-12,-233,o),
(-14,-257,cs),
(-16,-281,o),
(6,-300,o),
(40,-300,c)
);
}
);
vertWidth = 0;
width = 360;
}
);
unicode = 93;
},
{
color = 6;
glyphname = quotedbl;
kernLeft = quote_left;
kernRight = quote_right;
layers = (
{
layerId = m01;
shapes = (
{
closed = 1;
nodes = (
(122,500,o),
(135,508,o),
(137,524,cs),
(148,620,ls),
(150,640,o),
(137,650,o),
(124,650,cs),
(112,650,o),
(98,641,o),
(96,624,cs),
(86,528,ls),
(84,510,o),
(97,500,o),
(110,500,cs)
);
},
{
closed = 1;
nodes = (
(231,500,o),
(245,507,o),
(247,526,cs),
(256,620,ls),
(257,640,o),
(245,650,o),
(231,650,cs),
(219,650,o),
(207,642,o),
(205,628,cs),
(194,528,ls),
(192,509,o),
(205,500,o),
(219,500,cs)
);
}
);
vertWidth = 0;
width = 292;
},
{
layerId = m002;
shapes = (
{
closed = 1;
nodes = (
(158,456,o),
(182,471,o),
(185,498,cs),
(195,594,ls),
(199,628,o),
(174,650,o),
(146,650,cs),
(123,650,o),
(98,634,o),
(95,606,cs),
(84,510,ls),
(81,477,o),
(107,456,o),
(135,456,cs)
);
},
{
closed = 1;
nodes = (
(316,456,o),
(342,470,o),
(344,496,cs),
(354,595,ls),
(358,629,o),
(331,650,o),
(303,650,cs),
(280,650,o),
(257,635,o),
(253,610,cs),
(242,510,ls),
(238,472,o),
(270,456,o),
(294,456,cs)
);
}
);
vertWidth = 0;
width = 392;
}
);
unicode = 34;
},
{
color = 6;
glyphname = quotesingle;
kernLeft = quote_left;
kernRight = quote_right;
layers = (
{
layerId = m01;
shapes = (
{
closed = 1;
nodes = (
(122,500,o),
(136,507,o),
(137,521,cs),
(147,620,ls),
(148,640,o),
(136,650,o),
(122,650,cs),
(110,650,o),
(98,642,o),
(96,628,cs),
(85,528,ls),
(83,509,o),
(96,500,o),
(110,500,cs)
);
}
);
vertWidth = 0;
width = 182;
},
{
layerId = m002;
shapes = (
{
closed = 1;
nodes = (
(158,456,o),
(184,470,o),
(186,496,cs),
(196,595,ls),
(199,629,o),
(173,650,o),
(145,650,cs),
(122,650,o),
(97,635,o),
(94,610,cs),
(84,510,ls),
(80,472,o),
(112,456,o),
(136,456,cs)
);
}
);
vertWidth = 0;
width = 234;
}
);
unicode = 39;
},
{
color = 6;
glyphname = at;
layers = (
{
layerId = m01;
shapes = (
{
closed = 1;
nodes = (
(330,52,o),
(377,126,o),
(404,234,cs),
(430,338,o),
(417,406,o),
(350,406,cs),
(270,406,o),
(203,332,o),
(176,224,cs),
(150,120,o),
(183,52,o),
(250,52,cs)
);
},
{
closed = 1;
nodes = (
(221,97,o),
(207,137,o),
(226,215,cs),
(247,300,o),
(291,361,o),
(339,361,cs),
(379,361,o),
(393,321,o),
(374,243,cs),
(353,158,o),
(309,97,o),
(261,97,cs)
);
},
{
closed = 1;
nodes = (
(287,-80,o),
(336,-68,o),
(366,-60,cs),
(386,-55,o),
(390,-41,o),
(387,-29,cs),
(382,-13,o),
(363,-12,o),
(351,-16,cs),
(321,-25,o),
(278,-35,o),
(243,-35,cs),
(122,-35,o),
(53,77,o),
(87,214,cs),
(129,382,o),
(239,481,o),
(369,481,cs),
(491,481,o),
(560,385,o),
(528,250,cs),
(509,172,o),
(455,97,o),
(415,97,cs),
(399,97,o),
(397,131,o),
(411,185,cs),
(459,374,ls),
(463,390,o),
(459,402,o),
(442,402,cs),
(423,402,o),
(413,395,o),
(408,377,cs),
(362,196,ls),
(339,107,o),
(359,52,o),
(410,52,cs),
(473,52,o),
(552,146,o),
(578,251,cs),
(617,409,o),
(528,526,o),
(371,526,cs),
(214,526,o),
(84,410,o),
(37,223,cs),
(-6,49,o),
(86,-80,o),
(246,-80,cs)
);
}
);
vertWidth = 0;
width = 635;
},
{
layerId = m002;
shapes = (
{
closed = 1;
nodes = (
(352,49,o),
(383,124,o),
(411,229,cs),
(440,337,o),
(444,408,o),
(375,408,cs),
(298,408,o),
(226,341,o),
(199,233,cs),
(171,119,o),
(206,49,o),
(286,49,cs)
);
},
{
closed = 1;
nodes = (
(286,139,o),
(280,167,o),
(292,213,cs),
(308,278,o),
(339,318,o),
(373,318,cs),
(393,318,o),
(399,292,o),
(388,249,cs),
(371,181,o),
(340,139,o),
(307,139,cs)
);
},
{
closed = 1;
nodes = (
(311,-120,o),
(369,-111,o),
(417,-98,cs),
(454,-88,o),
(471,-64,o),
(462,-33,cs),
(453,-4,o),
(423,6,o),
(382,-8,cs),
(352,-18,o),
(308,-25,o),
(279,-25,cs),
(158,-25,o),
(94,78,o),
(128,215,cs),
(171,384,o),
(279,489,o),
(411,489,cs),
(528,489,o),
(592,395,o),
(563,268,cs),
(545,192,o),
(503,136,o),
(472,136,cs),
(457,136,o),
(462,164,o),
(466,179,cs),
(510,354,ls),
(519,390,o),
(504,408,o),
(472,408,cs),
(442,408,o),
(426,397,o),
(419,369,cs),
(376,200,ls),
(345,80,o),
(388,49,o),
(440,49,c),
(539,49,o),
(634,137,o),
(663,254,cs),
(711,443,o),
(604,584,o),
(414,584,cs),
(230,584,o),
(83,453,o),
(30,240,cs),
(-21,34,o),
(86,-120,o),
(281,-120,cs)
);
}
);
vertWidth = 0;
width = 720;
}
);
unicode = 64;
},
{
color = 6;
glyphname = ampersand;
layers = (
{
layerId = m01;
shapes = (
{
closed = 1;
nodes = (
(296,-1,o),
(377,66,o),
(472,231,cs),
(482,248,o),
(485,264,o),
(470,274,cs),
(455,284,o),
(441,278,o),
(431,261,cs),
(346,108,o),
(277,45,o),
(194,45,cs),
(134,45,o),
(97,89,o),
(97,159,cs),
(97,229,o),
(135,280,o),
(227,336,cs),
(272,363,ls),
(380,428,o),
(428,491,o),
(428,556,cs),
(428,610,o),
(377,650,o),
(309,650,cs),
(210,650,o),
(136,594,o),
(136,520,cs),
(136,463,o),
(185,390,o),
(207,353,cs),
(405,22,ls),
(415,5,o),
(429,-5,o),
(445,4,cs),
(460,12,o),
(457,33,o),
(444,55,cs),
(249,383,ls),
(231,413,o),
(186,485,o),
(186,520,cs),
(186,568,o),
(236,604,o),
(303,604,cs),
(346,604,o),
(378,579,o),
(378,546,cs),
(378,500,o),
(322,449,o),
(224,388,cs),
(203,375,ls),
(92,307,o),
(47,244,o),
(47,157,cs),
(47,59,o),
(103,-1,o),
(194,-1,cs)
);
}
);
vertWidth = 0;
width = 554;
},
{
layerId = m002;
shapes = (
{
closed = 1;
nodes = (
(326,-4,o),
(417,73,o),
(504,226,cs),
(519,252,o),
(512,277,o),
(484,293,cs),
(463,306,o),
(432,297,o),
(416,270,cs),
(345,149,o),
(285,87,o),
(224,87,cs),
(182,87,o),
(148,114,o),
(148,157,cs),
(148,204,o),
(177,264,o),
(249,318,cs),
(269,333,ls),
(404,434,o),
(442,484,o),
(442,555,cs),
(442,614,o),
(386,649,o),
(298,649,cs),
(190,649,o),
(106,579,o),
(106,504,cs),
(106,457,o),
(132,422,o),
(150,393,cs),
(386,28,ls),
(401,5,o),
(441,-9,o),
(468,10,cs),
(498,32,o),
(492,60,o),
(476,84,cs),
(283,371,ls),
(249,421,o),
(209,480,o),
(208,505,cs),
(208,527,o),
(240,560,o),
(283,560,cs),
(322,560,o),
(331,549,o),
(335,534,cs),
(343,506,o),
(308,462,o),
(226,408,cs),
(191,385,ls),
(114,335,o),
(48,269,o),
(48,156,cs),
(48,57,o),
(119,-4,o),
(212,-4,cs)
);
}
);
vertWidth = 0;
width = 585;
}
);
unicode = 38;
},
{
color = 6;
glyphname = degree;
layers = (
{
layerId = m01;
shapes = (
{
closed = 1;
nodes = (
(233,404,o),
(267,469,o),
(274,530,cs),
(280,593,o),
(255,654,o),
(193,654,cs),
(141,654,o),
(95,612,o),
(86,530,cs),
(80,467,o),
(105,404,o),
(167,404,cs)
);
},
{
closed = 1;
nodes = (
(139,450,o),
(128,487,o),
(132,528,cs),
(138,583,o),
(160,608,o),
(190,608,cs),
(227,608,o),
(231,559,o),
(228,531,cs),
(222,478,o),
(198,450,o),
(174,450,cs)
);
}
);
vertWidth = 0;
width = 318;
},
{
layerId = m002;
shapes = (
{
closed = 1;
nodes = (
(255,372,o),
(294,445,o),
(303,514,cs),
(310,585,o),
(281,654,o),
(208,654,cs),
(147,654,o),
(94,607,o),
(84,514,cs),
(77,443,o),
(106,372,o),
(178,372,cs)
);
},
{
closed = 1;
nodes = (
(164,459,o),
(157,485,o),
(160,513,cs),
(163,552,o),
(179,569,o),
(200,569,cs),
(225,569,o),
(229,536,o),
(226,515,cs),
(223,478,o),
(206,459,o),
(188,459,cs)
);
}
);
vertWidth = 0;
width = 349;
}
);
unicode = 176;
},
{
color = 6;
glyphname = bar;
layers = (
{
layerId = m01;
shapes = (
{
closed = 1;
nodes = (
(59,-300,o),
(61,-285,o),
(62,-275,cs),
(162,668,ls),
(165,690,o),
(153,700,o),
(140,700,cs),
(128,700,o),
(114,690,o),
(112,672,cs),
(11,-273,ls),
(9,-288,o),
(19,-300,o),
(37,-300,cs)
);
}
);
vertWidth = 0;
width = 202;
},
{
layerId = m002;
shapes = (
{
closed = 1;
nodes = (
(100,-302,o),
(111,-281,o),
(114,-260,c),
(211,645,ls),
(214,681,o),
(190,702,o),
(162,702,cs),
(140,702,o),
(115,685,o),
(112,657,cs),
(14,-250,ls),
(10,-278,o),
(34,-302,o),
(66,-302,cs)
);
}
);
vertWidth = 0;
width = 253;
}
);
unicode = 124;
},
{
color = 6;
glyphname = brokenbar;
layers = (
{
layerId = m01;
shapes = (
{
closed = 1;
nodes = (
(107,152,o),
(96,162,o),
(84,162,cs),
(71,162,o),
(56,152,o),
(55,135,cs),
(11,-273,ls),
(9,-288,o),
(19,-300,o),
(37,-300,cs),
(59,-300,o),
(61,-285,o),
(62,-275,cs),
(106,135,ls)
);
},
{
closed = 1;
nodes = (
(165,690,o),
(153,700,o),
(140,700,cs),
(128,700,o),
(114,690,o),
(112,672,cs),
(68,266,ls),
(67,249,o),
(78,238,o),
(91,239,cs),
(104,239,o),
(118,249,o),
(119,266,cs),
(162,668,ls)
);
}
);
vertWidth = 0;
width = 202;
},
{
layerId = m002;
shapes = (
{
closed = 1;
nodes = (
(156,141,o),
(133,163,o),
(106,163,cs),
(83,163,o),
(57,146,o),
(54,119,cs),
(14,-248,ls),
(11,-276,o),
(34,-300,o),
(66,-300,cs),
(100,-300,o),
(112,-279,o),
(114,-258,cs),
(153,111,ls)
);
},
{
closed = 1;
nodes = (
(214,679,o),
(189,700,o),
(161,700,cs),
(139,700,o),
(114,683,o),
(111,655,cs),
(72,290,ls),
(68,259,o),
(93,236,o),
(121,238,cs),
(144,239,o),
(168,256,o),
(171,282,cs),
(210,643,ls)
);
}
);
vertWidth = 0;
width = 252;
}
);
unicode = 166;
},
{
color = 6;
glyphname = dollar;
layers = (
{
layerId = m01;
shapes = (
{
closed = 1;
nodes = (
(285,-4,o),
(376,35,o),
(385,124,cs),
(393,202,o),
(331,254,o),
(251,300,cs),
(169,347,o),
(118,369,o),
(124,426,cs),
(130,483,o),
(185,522,o),
(280,522,cs),
(331,522,o),
(362,497,o),
(375,461,cs),
(380,448,o),
(394,442,o),
(407,446,cs),
(421,450,o),
(423,466,o),
(417,484,cs),
(401,531,o),
(356,568,o),
(278,568,cs),
(150,568,o),
(84,504,o),
(76,430,cs),
(68,350,o),
(134,309,o),
(213,264,cs),
(301,214,o),
(342,190,o),
(336,131,cs),
(329,67,o),
(255,42,o),
(185,42,cs),
(122,42,o),
(96,68,o),
(88,99,cs),
(84,116,o),
(69,122,o),
(55,118,cs),
(40,114,o),
(38,98,o),
(42,82,cs),
(55,30,o),
(100,-4,o),
(169,-4,cs)
);
},
{
closed = 1;
nodes = (
(208,-69,o),
(219,-62,o),
(221,-47,cs),
(289,596,ls),
(291,612,o),
(277,622,o),
(263,622,cs),
(252,622,o),
(241,616,o),
(239,601,cs),
(171,-42,ls),
(169,-60,o),
(183,-69,o),
(197,-69,cs)
);
}
);
vertWidth = 0;
width = 472;
},
{
layerId = m002;
shapes = (
{
closed = 1;
nodes = (
(306,-4,o),
(407,38,o),
(418,139,cs),
(426,228,o),
(356,279,o),
(280,323,cs),
(202,368,o),
(172,372,o),
(176,405,cs),
(180,446,o),
(214,478,o),
(293,478,cs),
(330,478,o),
(353,463,o),
(363,436,cs),
(373,411,o),
(394,393,o),
(419,401,cs),
(448,410,o),
(457,441,o),
(445,471,cs),
(427,525,o),
(377,568,o),
(291,568,cs),
(157,568,o),
(86,497,o),
(76,415,cs),
(67,323,o),
(142,285,o),
(218,243,cs),
(299,196,o),
(323,188,o),
(319,151,cs),
(314,109,o),
(265,86,o),
(205,86,cs),
(158,86,o),
(137,102,o),
(131,123,cs),
(125,154,o),
(101,170,o),
(73,162,cs),
(47,154,o),
(37,128,o),
(46,96,cs),
(61,35,o),
(113,-4,o),
(190,-4,cs)
);
},
{
closed = 1;
nodes = (
(238,-69,o),
(259,-51,o),
(263,-18,cs),
(326,569,ls),
(329,597,o),
(314,622,o),
(279,622,cs),
(249,622,o),
(229,601,o),
(226,574,cs),
(163,-12,ls),
(159,-48,o),
(176,-69,o),
(209,-69,cs)
);
}
);
vertWidth = 0;
width = 504;
}
);
unicode = 36;
},
{
color = 6;
glyphname = plus;
layers = (
{
layerId = m01;
shapes = (
{
closed = 1;
nodes = (
(206,88,o),
(218,94,o),
(220,110,cs),
(245,331,ls),
(247,349,o),
(238,361,o),
(226,362,cs),
(216,363,o),
(203,357,o),
(201,341,cs),
(177,120,ls),
(175,101,o),
(184,89,o),
(196,88,cs)
);
},
{
closed = 1;
nodes = (
(324,205,ls),
(342,205,o),
(351,217,o),
(351,228,cs),
(351,239,o),
(342,250,o),
(324,250,cs),
(97,250,ls),
(79,250,o),
(70,239,o),
(70,228,cs),
(70,216,o),
(79,205,o),
(97,205,cs)
);
}
);
vertWidth = 0;
width = 426;
},
{
layerId = m002;
shapes = (
{
closed = 1;
nodes = (
(218,68,o),
(242,76,o),
(245,105,cs),
(269,327,ls),
(273,362,o),
(253,382,o),
(232,382,cs),
(215,382,o),
(189,377,o),
(186,348,cs),
(162,125,ls),
(158,86,o),
(179,68,o),
(200,68,cs)
);
},
{
closed = 1;
nodes = (
(327,184,ls),
(361,184,o),
(373,208,o),
(373,227,cs),
(373,247,o),
(361,270,o),
(327,270,cs),
(100,270,ls),
(66,270,o),
(54,247,o),
(54,227,cs),
(54,207,o),
(66,184,o),
(100,184,cs)
);
}
);
vertWidth = 0;
width = 426;
}
);
unicode = 43;
},
{
color = 6;
glyphname = minus;
layers = (
{
layerId = m01;
shapes = (
{
closed = 1;
nodes = (
(324,205,ls),
(342,205,o),
(351,217,o),
(351,228,cs),
(351,239,o),
(342,250,o),
(324,250,cs),
(97,250,ls),
(79,250,o),
(70,239,o),
(70,228,cs),
(70,216,o),
(79,205,o),
(97,205,cs)
);
}
);
vertWidth = 0;
width = 426;
},
{
layerId = m002;
shapes = (
{
closed = 1;
nodes = (
(327,184,ls),
(361,184,o),
(373,208,o),
(373,227,cs),
(373,247,o),
(361,270,o),
(327,270,cs),
(100,270,ls),
(66,270,o),
(54,247,o),
(54,227,cs),
(54,207,o),
(66,184,o),
(100,184,cs)
);
}
);
vertWidth = 0;
width = 426;
}
);
unicode = 8722;
},
{
color = 6;
glyphname = multiply;
layers = (
{
layerId = m01;
shapes = (
{
closed = 1;
nodes = (
(336,327,ls),
(350,340,o),
(350,352,o),
(341,360,cs),
(332,369,o),
(318,371,o),
(304,358,cs),
(66,123,ls),
(54,112,o),
(54,100,o),
(62,91,cs),
(71,82,o),
(85,78,o),
(100,93,cs)
);
},
{
closed = 1;
nodes = (
(298,79,o),
(310,80,o),
(319,87,cs),
(330,95,o),
(335,107,o),
(323,121,cs),
(121,353,ls),
(108,368,o),
(96,370,o),
(87,363,cs),
(77,355,o),
(73,339,o),
(83,327,cs),
(286,93,ls)
);
}
);
vertWidth = 0;
width = 426;
},
{
layerId = m002;
shapes = (
{
closed = 1;
nodes = (
(336,300,ls),
(365,329,o),
(357,348,o),
(341,364,cs),
(327,378,o),
(302,387,o),
(278,363,cs),
(68,150,ls),
(46,128,o),
(48,105,o),
(63,89,cs),
(78,73,o),
(101,61,o),
(128,88,cs)
);
},
{
closed = 1;
nodes = (
(288,66,o),
(311,70,o),
(327,82,cs),
(346,96,o),
(354,118,o),
(335,144,c),
(144,354,ls),
(118,383,o),
(96,379,o),
(81,368,cs),
(63,354,o),
(54,326,o),
(73,305,cs),
(265,92,ls)
);
}
);
vertWidth = 0;
width = 426;
}
);
unicode = 215;
},
{
color = 6;
glyphname = divide;
layers = (
{
layerId = m01;
shapes = (
{
closed = 1;
nodes = (
(215,87,o),
(231,103,o),
(231,120,cs),
(231,138,o),
(214,152,o),
(197,152,cs),
(178,152,o),
(166,136,o),
(166,120,cs),
(166,103,o),
(179,87,o),
(197,87,cs)
);
},
{
closed = 1;
nodes = (
(324,205,ls),
(342,205,o),
(351,217,o),
(351,228,cs),
(351,239,o),
(342,250,o),
(324,250,cs),
(97,250,ls),
(79,250,o),
(70,239,o),
(70,228,cs),
(70,217,o),
(79,205,o),
(97,205,cs)
);
},
{
closed = 1;
nodes = (
(239,303,o),
(255,319,o),
(255,336,cs),
(255,353,o),
(239,368,o),
(222,368,cs),
(204,368,o),
(190,352,o),
(190,336,cs),
(190,320,o),
(204,303,o),
(222,303,cs)
);
}
);
vertWidth = 0;
width = 426;
},
{
layerId = m002;
shapes = (
{
closed = 1;
nodes = (
(228,48,o),
(255,75,o),
(255,106,cs),
(255,135,o),
(228,160,o),
(199,160,cs),
(168,160,o),
(144,135,o),
(144,106,cs),
(144,75,o),
(168,48,o),
(199,48,cs)
);
},
{
closed = 1;
nodes = (
(327,184,ls),
(361,184,o),
(373,208,o),
(373,227,cs),
(373,247,o),
(361,270,o),
(327,270,cs),
(100,270,ls),
(66,270,o),
(54,247,o),
(54,227,cs),
(54,207,o),
(66,184,o),
(100,184,cs)
);
},
{
closed = 1;
nodes = (
(247,294,o),
(274,321,o),
(274,352,cs),
(274,381,o),
(247,406,o),
(218,406,cs),
(187,406,o),
(163,381,o),
(163,352,cs),
(163,321,o),
(187,294,o),
(218,294,cs)
);
}
);
vertWidth = 0;
width = 426;
}
);
unicode = 247;
},
{
color = 6;
glyphname = equal;
layers = (
{
layerId = m01;
shapes = (
{
closed = 1;
nodes = (
(313,129,ls),
(331,129,o),
(340,141,o),
(340,152,cs),
(340,163,o),
(331,174,o),
(313,174,cs),
(86,174,ls),
(68,174,o),
(59,162,o),
(59,151,cs),
(59,140,o),
(68,129,o),
(86,129,cs)
);
},
{
closed = 1;
nodes = (
(330,280,ls),
(348,280,o),
(357,292,o),
(357,303,cs),
(357,314,o),
(348,325,o),
(330,325,cs),
(103,325,ls),
(85,325,o),
(76,313,o),
(76,302,cs),
(76,291,o),
(85,280,o),
(103,280,cs)
);
}
);
vertWidth = 0;
width = 426;
},
{
layerId = m002;
shapes = (
{
closed = 1;
nodes = (
(315,120,ls),
(349,120,o),
(361,144,o),
(361,163,cs),
(361,183,o),
(349,206,o),
(315,206,cs),
(88,206,ls),
(54,206,o),
(42,183,o),
(42,163,cs),
(42,143,o),
(54,120,o),
(88,120,cs)
);
},
{
closed = 1;
nodes = (
(328,251,ls),
(362,251,o),
(374,275,o),
(374,294,cs),
(374,314,o),
(362,337,o),
(328,337,cs),
(101,337,ls),
(67,337,o),
(55,314,o),
(55,294,cs),
(55,274,o),
(67,251,o),
(101,251,cs)
);
}
);
vertWidth = 0;
width = 426;
}
);
unicode = 61;
},
{
color = 6;
glyphname = notequal;
layers = (
{
layerId = m01;
shapes = (
{
closed = 1;
nodes = (
(313,129,ls),
(331,129,o),
(340,141,o),
(340,152,cs),
(340,163,o),
(331,174,o),
(313,174,cs),
(86,174,ls),
(68,174,o),
(59,162,o),
(59,151,cs),
(59,140,o),
(68,129,o),
(86,129,cs)
);
},
{
closed = 1;
nodes = (
(330,280,ls),
(348,280,o),
(357,292,o),
(357,303,cs),
(357,314,o),
(348,325,o),
(330,325,cs),
(103,325,ls),
(85,325,o),
(76,313,o),
(76,302,cs),
(76,291,o),
(85,280,o),
(103,280,cs)
);
},
{
closed = 1;
nodes = (
(289,338,ls),
(303,362,o),
(289,377,o),
(275,377,cs),
(265,377,o),
(258,373,o),
(251,362,cs),
(112,110,ls),
(103,92,o),
(110,80,o),
(121,75,cs),
(130,71,o),
(144,73,o),
(153,89,cs)
);
}
);
vertWidth = 0;
width = 426;
},
{
layerId = m002;
shapes = (
{
closed = 1;
nodes = (
(315,120,ls),
(349,120,o),
(361,144,o),
(361,163,cs),
(361,183,o),
(349,206,o),
(315,206,cs),
(88,206,ls),
(54,206,o),
(42,183,o),
(42,163,cs),
(42,143,o),
(54,120,o),
(88,120,cs)
);
},
{
closed = 1;
nodes = (
(328,251,ls),
(362,251,o),
(374,275,o),
(374,294,cs),
(374,314,o),
(362,337,o),
(328,337,cs),
(101,337,ls),
(67,337,o),
(55,314,o),
(55,294,cs),
(55,274,o),
(67,251,o),
(101,251,cs)
);
},
{
closed = 1;
nodes = (
(326,337,ls),
(360,393,o),
(316,407,o),
(293,407,cs),
(276,407,o),
(264,402,o),
(252,383,cs),
(86,111,ls),
(67,80,o),
(86,56,o),
(105,47,cs),
(121,40,o),
(148,43,o),
(164,69,cs)
);
}
);
vertWidth = 0;
width = 426;
}
);
unicode = 8800;
},
{
color = 6;
glyphname = greater;
layers = (
{
guides = (
{
name = " [#GqRMvt6B8x]";
pos = (131,333);
}
);
layerId = m01;
shapes = (
{
closed = 1;
nodes = (
(332,198,ls),
(340,202,o),
(346,210,o),
(346,218,cs),
(346,225,o),
(344,232,o),
(336,237,cs),
(157,362,ls),
(142,373,o),
(129,373,o),
(120,364,cs),
(111,353,o),
(113,338,o),
(128,327,cs),
(303,205,l),
(306,235,l),
(98,139,ls),
(78,130,o),
(74,120,o),
(77,108,cs),
(80,98,o),
(91,87,o),
(110,96,cs)
);
}
);
vertWidth = 0;
width = 426;
},
{
guides = (
{
name = " [#GqRMvt6B8x]";
pos = (131,333);
}
);
layerId = m002;
shapes = (
{
closed = 1;
nodes = (
(340,182,ls),
(356,188,o),
(366,206,o),
(366,221,cs),
(366,233,o),
(364,246,o),
(349,255,cs),
(170,358,ls),
(142,374,o),
(123,372,o),
(107,356,cs),
(89,338,o),
(88,306,o),
(117,290,cs),
(272,205,l),
(277,247,l),
(101,178,ls),
(65,164,o),
(65,144,o),
(70,125,cs),
(75,106,o),
(92,83,o),
(130,98,cs)
);
}
);
vertWidth = 0;
width = 426;
}
);
unicode = 62;
},
{
color = 6;
glyphname = less;
layers = (
{
layerId = m01;
shapes = (
{
closed = 1;
nodes = (
(283,91,o),
(296,91,o),
(305,100,cs),
(314,111,o),
(312,126,o),
(297,137,cs),
(122,259,l),
(119,229,l),
(327,325,ls),
(347,334,o),
(351,344,o),
(348,356,cs),
(345,366,o),
(334,377,o),
(315,368,cs),
(93,266,ls),
(85,262,o),
(79,254,o),
(79,246,cs),
(79,239,o),
(81,232,o),
(89,227,cs),
(268,102,ls)
);
}
);
vertWidth = 0;
width = 426;
},
{
layerId = m002;
shapes = (
{
closed = 1;
nodes = (
(281,93,o),
(308,94,o),
(322,108,cs),
(341,126,o),
(341,158,o),
(312,174,cs),
(157,259,l),
(152,217,l),
(328,286,ls),
(364,300,o),
(364,320,o),
(359,339,cs),
(354,358,o),
(337,381,o),
(299,366,cs),
(89,282,ls),
(73,276,o),
(63,258,o),
(63,243,cs),
(63,231,o),
(65,218,o),
(80,209,cs),
(259,106,ls)
);
}
);
vertWidth = 0;
width = 426;
}
);
unicode = 60;
},
{
color = 6;
glyphname = greaterequal;
layers = (
{
layerId = m01;
shapes = (
{
closed = 1;
nodes = (
(310,129,ls),
(328,129,o),
(337,140,o),
(337,152,cs),
(337,163,o),
(328,174,o),
(310,174,cs),
(83,174,ls),
(65,174,o),
(56,162,o),
(56,151,cs),
(56,140,o),
(65,129,o),
(83,129,cs)
);
},
{
closed = 1;
nodes = (
(316,234,ls),
(334,234,o),
(343,245,o),
(343,257,cs),
(343,263,o),
(340,270,o),
(334,274,cs),
(148,392,ls),
(132,402,o),
(119,401,o),
(111,391,cs),
(103,380,o),
(106,366,o),
(121,356,cs),
(267,263,l),
(272,279,l),
(89,279,ls),
(71,279,o),
(62,267,o),
(62,256,cs),
(62,245,o),
(71,234,o),
(89,234,cs)
);
}
);
vertWidth = 0;
width = 426;
},
{
layerId = m002;
shapes = (
{
closed = 1;
nodes = (
(315,106,ls),
(349,106,o),
(361,130,o),
(361,149,cs),
(361,169,o),
(349,192,o),
(315,192,cs),
(88,192,ls),
(54,192,o),
(42,169,o),
(42,149,cs),
(42,129,o),
(54,106,o),
(88,106,cs)
);
},
{
closed = 1;
nodes = (
(313,221,ls),
(346,221,o),
(359,244,o),
(359,264,cs),
(359,277,o),
(354,290,o),
(341,299,cs),
(169,415,ls),
(140,435,o),
(119,425,o),
(106,409,c),
(92,389,o),
(89,362,o),
(120,345,cs),
(219,292,l),
(232,307,l),
(108,307,ls),
(74,307,o),
(61,283,o),
(61,264,c),
(61,245,o),
(73,221,o),
(108,221,cs)
);
}
);
vertWidth = 0;
width = 426;
}
);
unicode = 8805;
},
{
color = 6;
glyphname = lessequal;
layers = (
{
layerId = m01;
shapes = (
{
closed = 1;
nodes = (
(310,129,ls),
(328,129,o),
(337,140,o),
(337,152,cs),
(337,163,o),
(328,174,o),
(310,174,cs),
(83,174,ls),
(65,174,o),
(56,162,o),
(56,151,cs),
(56,140,o),
(65,129,o),
(83,129,cs)
);
},
{
closed = 1;
nodes = (
(316,234,ls),
(334,234,o),
(343,245,o),
(343,257,cs),
(343,268,o),
(334,279,o),
(316,279,cs),
(149,279,l),
(152,265,l),
(328,356,ls),
(344,364,o),
(346,380,o),
(338,391,cs),
(330,401,o),
(318,401,o),
(301,392,cs),
(75,276,ls),
(66,271,o),
(62,264,o),
(62,256,cs),
(62,245,o),
(71,234,o),
(89,234,cs)
);
}
);
vertWidth = 0;
width = 426;
},
{
layerId = m002;
shapes = (
{
closed = 1;
nodes = (
(315,106,ls),
(349,106,o),
(361,130,o),
(361,149,cs),
(361,169,o),
(349,192,o),
(315,192,cs),
(88,192,ls),
(54,192,o),
(42,169,o),
(42,149,cs),
(42,129,o),
(54,106,o),
(88,106,cs)
);
},
{
closed = 1;
nodes = (
(313,221,ls),
(346,221,o),
(359,244,o),
(359,264,cs),
(359,283,o),
(347,307,o),
(313,307,cs),
(181,307,l),
(192,281,l),
(334,343,ls),
(365,356,o),
(365,388,o),
(350,408,cs),
(337,425,o),
(318,432,o),
(289,416,cs),
(85,302,ls),
(67,292,o),
(61,278,o),
(61,264,cs),
(61,245,o),
(73,221,o),
(107,221,cs)
);
}
);
vertWidth = 0;
width = 426;
}
);
unicode = 8804;
},
{
color = 6;
glyphname = plusminus;
layers = (
{
layerId = m01;
shapes = (
{
closed = 1;
nodes = (
(209,186,o),
(221,192,o),
(223,208,cs),
(236,340,ls),
(238,358,o),
(229,371,o),
(216,371,c),
(207,371,o),
(193,365,o),
(192,350,cs),
(180,218,ls),
(178,199,o),
(187,186,o),
(199,186,cs)
);
},
{
closed = 1;
nodes = (
(321,257,ls),
(339,257,o),
(348,269,o),
(348,280,cs),
(348,291,o),
(339,302,o),
(321,302,cs),
(94,302,ls),
(76,302,o),
(67,291,o),
(67,280,cs),
(67,268,o),
(76,257,o),
(94,257,cs)
);
},
{
closed = 1;
nodes = (
(310,129,ls),
(328,129,o),
(337,141,o),
(337,152,cs),
(337,163,o),
(328,174,o),
(310,174,cs),
(83,174,ls),
(65,174,o),
(56,163,o),
(56,152,cs),
(56,140,o),
(65,129,o),
(83,129,cs)
);
}
);
vertWidth = 0;
width = 426;
},
{
layerId = m002;
shapes = (
{
closed = 1;
nodes = (
(230,206,o),
(254,214,o),
(257,243,cs),
(281,465,ls),
(285,500,o),
(265,520,o),
(244,520,cs),
(227,520,o),
(201,515,o),
(198,486,cs),
(174,263,l),
(166,225,o),
(191,206,o),
(212,206,cs)
);
},
{
closed = 1;
nodes = (
(339,322,ls),
(373,322,o),
(385,346,o),
(385,365,cs),
(385,385,o),
(373,408,o),
(339,408,cs),
(112,408,ls),
(78,408,o),
(66,385,o),
(66,365,cs),
(66,345,o),
(78,322,o),
(112,322,cs)
);
},
{
closed = 1;
nodes = (
(315,100,ls),
(349,100,o),
(361,124,o),
(361,143,cs),
(361,163,o),
(349,186,o),
(315,186,cs),
(88,186,ls),
(54,186,o),
(42,163,o),
(42,143,cs),
(42,123,o),
(54,100,o),
(88,100,cs)
);
}
);
vertWidth = 0;
width = 426;
}
);
unicode = 177;
},
{
color = 6;
glyphname = approxequal;
layers = (
{
layerId = m01;
shapes = (
{
closed = 1;
nodes = (
(109,138,o),
(127,145,o),
(140,145,cs),
(181,145,o),
(215,117,o),
(253,117,cs),
(279,117,o),
(305,127,o),
(323,134,cs),
(338,140,o),
(345,151,o),
(340,164,cs),
(335,177,o),
(323,181,o),
(307,175,cs),
(292,169,o),
(274,162,o),
(261,162,cs),
(223,162,o),
(189,190,o),
(148,190,cs),
(122,190,o),
(96,180,o),
(78,173,cs),
(63,167,o),
(56,156,o),
(61,143,cs),
(66,130,o),
(78,126,o),
(94,132,cs)
);
},
{
closed = 1;
nodes = (
(127,289,o),
(145,296,o),
(158,296,cs),
(199,296,o),
(233,268,o),
(271,268,cs),
(297,268,o),
(323,278,o),
(341,285,cs),
(356,291,o),
(363,302,o),
(358,315,cs),
(353,328,o),
(341,332,o),
(325,326,cs),
(310,320,o),
(292,313,o),
(279,313,cs),
(241,313,o),
(207,341,o),
(166,341,cs),
(140,341,o),
(114,331,o),
(96,324,cs),
(81,318,o),
(74,307,o),
(79,294,cs),
(84,281,o),
(96,277,o),
(112,283,cs)
);
}
);
vertWidth = 0;
width = 426;
},
{
layerId = m002;
shapes = (
{
closed = 1;
nodes = (
(124,124,o),
(136,131,o),
(146,131,cs),
(179,131,o),
(214,109,o),
(249,109,cs),
(276,109,o),
(303,116,o),
(323,124,cs),
(354,137,o),
(362,162,o),
(353,183,cs),
(343,205,o),
(322,215,o),
(288,201,cs),
(278,197,o),
(265,192,o),
(256,192,cs),
(221,192,o),
(190,214,o),
(153,214,cs),
(125,214,o),
(98,205,o),
(79,196,cs),
(47,181,o),
(38,157,o),
(48,136,cs),
(58,114,o),
(80,104,o),
(113,119,cs)
);
},
{
closed = 1;
nodes = (
(139,264,o),
(151,271,o),
(161,271,cs),
(194,271,o),
(229,249,o),
(264,249,cs),
(291,249,o),
(318,256,o),
(338,264,cs),
(369,277,o),
(377,302,o),
(368,323,cs),
(358,345,o),
(337,355,o),
(303,341,cs),
(293,337,o),
(280,332,o),
(271,332,cs),
(236,332,o),
(205,354,o),
(168,354,cs),
(140,354,o),
(113,345,o),
(94,336,cs),
(62,321,o),
(53,297,o),
(63,276,cs),
(73,254,o),
(95,244,o),
(128,259,cs)
);
}
);
vertWidth = 0;
width = 426;
}
);
unicode = 8776;
},
{
color = 6;
glyphname = asciicircum;
layers = (
{
layerId = m01;
shapes = (
{
closed = 1;
nodes = (
(243,409,l),
(201,413,l),
(299,296,ls),
(310,283,o),
(325,285,o),
(334,293,cs),
(344,302,o),
(347,317,o),
(337,329,cs),
(244,439,ls),
(236,449,o),
(219,451,o),
(205,439,cs),
(72,328,ls),
(60,318,o),
(61,304,o),
(69,295,cs),
(78,286,o),
(90,281,o),
(106,294,cs)
);
}
);
vertWidth = 0;
width = 411;
},
{
layerId = m002;
shapes = (
{
closed = 1;
nodes = (
(252,388,l),
(222,390,l),
(312,284,ls),
(330,262,o),
(354,267,o),
(368,279,cs),
(383,292,o),
(388,316,o),
(372,335,cs),
(272,454,ls),
(259,469,o),
(236,475,o),
(213,456,cs),
(77,342,ls),
(57,325,o),
(60,302,o),
(73,287,c),
(87,273,o),
(106,264,o),
(130,284,cs)
);
}
);
vertWidth = 0;
width = 450;
}
);
unicode = 94;
},
{
color = 6;
glyphname = infinity;
layers = (
{
layerId = m01;
shapes = (
{
closed = 1;
nodes = (
(212,80,o),
(279,128,o),
(342,193,c),
(314,230,l),
(258,175,o),
(199,125,o),
(150,125,cs),
(110,125,o),
(92,169,o),
(106,227,cs),
(121,286,o),
(150,316,o),
(193,316,cs),
(227,316,o),
(263,288,o),
(300,233,cs),
(336,180,ls),
(381,114,o),
(429,80,o),
(476,80,cs),
(553,80,o),
(602,125,o),
(622,215,cs),
(637,281,o),
(616,361,o),
(535,361,cs),
(465,361,o),
(398,313,o),
(335,248,c),
(363,211,l),
(419,266,o),
(478,316,o),
(527,316,cs),
(567,316,o),
(585,272,o),
(571,214,cs),
(556,155,o),
(527,125,o),
(484,125,cs),
(450,125,o),
(414,153,o),
(377,208,cs),
(341,261,ls),
(296,327,o),
(248,361,o),
(201,361,cs),
(124,361,o),
(75,316,o),
(55,226,cs),
(40,160,o),
(61,80,o),
(142,80,cs)
);
}
);
vertWidth = 0;
width = 701;
},
{
layerId = m002;
shapes = (
{
closed = 1;
nodes = (
(235,70,o),
(307,121,o),
(364,181,c),
(306,246,l),
(266,206,o),
(214,157,o),
(178,157,cs),
(148,157,o),
(136,181,o),
(146,220,cs),
(156,260,o),
(182,284,o),
(214,284,cs),
(234,284,o),
(264,258,o),
(291,217,cs),
(321,173,ls),
(365,109,o),
(421,70,o),
(465,70,cs),
(551,70,o),
(613,124,o),
(631,211,cs),
(656,310,o),
(612,371,o),
(515,371,cs),
(452,371,o),
(380,320,o),
(323,260,c),
(381,195,l),
(421,235,o),
(473,284,o),
(509,284,cs),
(541,284,o),
(551,261,o),
(541,221,cs),
(531,181,o),
(507,157,o),
(473,157,cs),
(448,157,o),
(418,183,o),
(396,224,cs),
(366,278,ls),
(334,335,o),
(278,371,o),
(220,371,cs),
(138,371,o),
(76,317,o),
(56,230,cs),
(33,131,o),
(77,70,o),
(172,70,cs)
);
}
);
vertWidth = 0;
width = 711;
}
);
unicode = 8734;
},
{
color = 6;
glyphname = percent;
layers = (
{
layerId = m01;
shapes = (
{
closed = 1;
nodes = (
(134,0,o),
(141,10,o),
(151,23,cs),
(581,606,ls),
(598,629,o),
(586,650,o),
(565,650,cs),
(552,650,o),
(545,640,o),
(535,627,cs),
(105,44,ls),
(88,21,o),
(100,0,o),
(121,0,cs)
);
},
{
closed = 1;
nodes = (
(267,343,o),
(349,443,o),
(349,554,cs),
(349,611,o),
(312,650,o),
(251,650,c),
(159,650,o),
(77,550,o),
(77,439,cs),
(77,382,o),
(114,343,o),
(175,343,c)
);
},
{
closed = 1;
nodes = (
(145,388,o),
(127,416,o),
(127,449,cs),
(127,524,o),
(182,605,o),
(244,605,cs),
(281,605,o),
(299,577,o),
(299,544,cs),
(299,462,o),
(238,388,o),
(182,388,cs)
);
},
{
closed = 1;
nodes = (
(538,0,o),
(620,100,o),
(620,211,cs),
(620,268,o),
(583,307,o),
(522,307,c),
(430,307,o),
(348,207,o),
(348,96,cs),
(348,39,o),
(385,0,o),
(446,0,c)
);
},
{
closed = 1;
nodes = (
(416,45,o),
(398,73,o),
(398,106,cs),
(398,181,o),
(453,262,o),
(515,262,cs),
(552,262,o),
(570,234,o),
(570,201,cs),
(570,119,o),
(509,45,o),
(453,45,cs)
);
}
);
vertWidth = 0;
width = 699;
},
{
layerId = m002;
shapes = (
{
closed = 1;
nodes = (
(204,0,o),
(217,10,o),
(233,32,cs),
(627,566,ls),
(666,619,o),
(628,650,o),
(591,650,cs),
(571,650,o),
(558,640,o),
(541,618,cs),
(147,84,ls),
(108,31,o),
(147,0,o),
(184,0,cs)
);
},
{
closed = 1;
nodes = (
(290,314,o),
(380,416,o),
(380,535,cs),
(380,603,o),
(337,650,o),
(263,650,cs),
(167,650,o),
(76,549,o),
(76,429,cs),
(76,361,o),
(120,314,o),
(194,314,cs)
);
},
{
closed = 1;
nodes = (
(183,410,o),
(177,425,o),
(177,439,cs),
(177,490,o),
(211,554,o),
(257,554,cs),
(274,554,o),
(280,539,o),
(280,525,cs),
(280,470,o),
(241,410,o),
(200,410,cs)
);
},
{
closed = 1;
nodes = (
(609,0,o),
(700,101,o),
(700,221,cs),
(700,289,o),
(656,336,o),
(582,336,cs),
(486,336,o),
(396,234,o),
(396,115,cs),
(396,47,o),
(439,0,o),
(513,0,cs)
);
},
{
closed = 1;
nodes = (
(502,96,o),
(496,111,o),
(496,125,cs),
(496,176,o),
(530,240,o),
(576,240,cs),
(593,240,o),
(599,225,o),
(599,211,cs),
(599,156,o),
(561,96,o),
(519,96,cs)
);
}
);
vertWidth = 0;
width = 778;
}
);
unicode = 37;
},
{
color = 6;
glyphname = grave;
layers = (
{
layerId = m01;
shapes = (
{
closed = 1;
nodes = (
(273,447,o),
(286,444,o),
(295,449,cs),
(303,453,o),
(306,463,o),
(300,477,cs),
(258,573,ls),
(252,586,o),
(239,591,o),
(228,591,cs),
(212,590,o),
(197,576,o),
(210,554,cs),
(264,462,ls)
);
}
);
vertWidth = 0;
width = 500;
},
{
layerId = m002;
shapes = (
{
closed = 1;
nodes = (
(269,442,o),
(292,448,o),
(305,455,cs),
(317,461,o),
(343,479,o),
(329,506,cs),
(280,602,ls),
(271,620,o),
(255,628,o),
(240,628,cs),
(214,628,o),
(174,598,o),
(196,562,cs),
(253,468,ls)
);
}
);
vertWidth = 0;
width = 500;
}
);
unicode = 96;
},
{
color = 6;
glyphname = tilde;
layers = (
{
layerId = m01;
shapes = (
{
closed = 1;
nodes = (
(187,420,o),
(203,422,o),
(213,434,cs),
(223,446,o),
(235,455,o),
(253,455,cs),
(276,455,o),
(307,424,o),
(338,424,cs),
(369,424,o),
(399,438,o),
(417,460,cs),
(426,472,o),
(430,485,o),
(420,495,cs),
(411,504,o),
(394,502,o),
(385,490,cs),
(374,476,o),
(361,469,o),
(344,469,cs),
(323,469,o),
(293,500,o),
(260,500,cs),
(228,500,o),
(198,486,o),
(181,464,cs),
(172,453,o),
(169,438,o),
(178,429,cs)
);
}
